<?xml version="1.0" encoding="UTF-8"?>
<svg width="216px" height="160px" viewBox="0 0 216 160" version="1.1" xmlns="http://www.w3.org/2000/svg" xmlns:xlink="http://www.w3.org/1999/xlink">
    <!-- Generator: Sketch 51.2 (57519) - http://www.bohemiancoding.com/sketch -->
    <title>Game Thumbnail 12</title>
    <desc>Created with Sketch.</desc>
    <defs>
        <rect id="path-1" x="0" y="0" width="216" height="160" rx="6"></rect>
        <rect id="path-3" x="0" y="0" width="216" height="216"></rect>
        <rect id="path-5" x="0.0778452953" y="0.485090333" width="103.499284" height="147.039415" rx="6.22080008"></rect>
        <filter x="-1.0%" y="-0.7%" width="103.9%" height="102.7%" filterUnits="objectBoundingBox" id="filter-6">
            <feOffset dx="2" dy="2" in="SourceAlpha" result="shadowOffsetOuter1"></feOffset>
            <feColorMatrix values="0 0 0 0 0.278431373   0 0 0 0 0.298039216   0 0 0 0 0.376470588  0 0 0 0.1 0" type="matrix" in="shadowOffsetOuter1"></feColorMatrix>
        </filter>
    </defs>
    <g id="Symbols" stroke="none" stroke-width="1" fill="none" fill-rule="evenodd">
        <g id="Games-/-Game-Thumbnail-/-Baccarat">
            <g id="Game-Thumbnail-12">
                <mask id="mask-2" fill="white">
                    <use xlink:href="#path-1"></use>
                </mask>
                <g id="Game_Mask"></g>
                <g id="IN" mask="url(#mask-2)">
                    <mask id="mask-4" fill="white">
                        <use xlink:href="#path-3"></use>
                    </mask>
                    <use id="Rectangle-2" fill="#00C903" xlink:href="#path-3"></use>
                    <g id="Card-01" mask="url(#mask-4)">
                        <g transform="translate(82.000000, 115.000000) rotate(-13.000000) translate(-82.000000, -115.000000) translate(30.000000, 41.000000)">
                            <g id="Combined-Shape" fill="none">
                                <use fill="black" fill-opacity="1" filter="url(#filter-6)" xlink:href="#path-5"></use>
                                <use fill="#FFFFFF" fill-rule="evenodd" xlink:href="#path-5"></use>
                            </g>
                            <path d="M36.118893,75.261707 L26.4562856,84.9243144 C25.6146084,85.7659916 24.2421897,85.7582012 23.4077755,84.923787 L15.1527314,76.6687429 C14.3107629,75.8267745 14.3180785,74.4543583 15.152204,73.6202328 L24.8167469,63.9556899 L24.8148114,63.9537543 L34.5909912,54.1775745 C35.4326684,53.3358973 36.8050871,53.3436877 37.6395013,54.1781019 L47.4190641,63.9576647 L47.4171286,63.9596003 L57.0811441,73.6236159 C57.9231126,74.4655843 57.915797,75.8380004 57.0816715,76.672126 L48.8294831,84.9243144 C47.9878059,85.7659916 46.6153871,85.7582012 45.780973,84.923787 L36.118893,75.261707 Z M27.0958687,96.7262195 C25.8988518,96.7260125 25.6183437,96.0359788 26.4524692,95.2018532 L36.2286491,85.4256734 L46.0082119,95.2052363 C46.8501804,96.0472047 46.5614542,96.729587 45.3653399,96.7293801 L27.0958687,96.7262195 Z" id="Rectangle-45-Copy-8" fill="#081C36" fill-rule="evenodd"></path>
                            <path d="M30.4661148,37.8337107 L31.3211735,39.9798543 C31.4698794,40.4527335 31.841644,40.63461 32.3621146,40.4891088 C35.5592908,39.4705999 44.7418781,35.2510633 44.7418781,24.629471 C44.7418781,19.1731736 41.7305843,14.5898838 35.893879,14.5898838 C31.3211735,14.5898838 27.4919974,18.3365414 27.4919974,22.9198312 C27.4919974,28.1215014 31.35835,30.8132747 35.0759967,30.8132747 C36.8232906,30.8132747 38.682114,30.158519 39.3141139,29.7947659 C38.1616434,33.7960506 32.8825851,36.2331968 31.1352912,36.7788265 C30.4289383,36.9970784 30.2802324,37.3972069 30.4661148,37.8337107 Z M35.9682319,27.2484938 C33.588938,27.2484938 31.6929382,25.320602 31.6929382,22.9925818 C31.6929382,20.7009369 33.588938,18.7366698 35.9310554,18.7366698 C38.9423493,18.7366698 40.2807021,21.6103198 40.2807021,24.0838413 C39.8717609,25.3933527 38.4218787,27.2484938 35.9682319,27.2484938 Z" id="9" fill="#091836" fill-rule="evenodd"></path>
                        </g>
                    </g>
                </g>
            </g>
        </g>
    </g>
</svg>