<svg xmlns="http://www.w3.org/2000/svg" viewBox="0 0 217 161" width="217" height="161">
	<style>
		tspan { white-space:pre }
		.shp0 { fill: #000000 } 
		.shp1 { fill: #ffffff } 
		.shp2 { fill: #3179f6 } 
		.shp3 { fill: #ffffff;stroke: #3179f6;stroke-width: 11.676 } 
		.shp4 { opacity: 0.302;fill: none;stroke: #ffffff;stroke-width: 1.8 } 
		.shp5 { opacity: 0.4;fill: #ffffff } 
	</style>
	<g >
		<path class="shp0" d="M-23.14 68.92L49.02 56.2C52.94 55.51 56.67 58.12 57.36 62.04L76.73 171.9C77.42 175.82 74.81 179.55 70.89 180.24L-1.27 192.96C-5.19 193.66 -8.92 191.05 -9.61 187.12L-28.98 77.26C-29.67 73.34 -27.06 69.61 -23.14 68.92Z" />
		<path class="shp1" d="M-23.14 68.92L49.02 56.2C52.94 55.51 56.67 58.12 57.36 62.04L76.73 171.9C77.42 175.82 74.81 179.55 70.89 180.24L-1.27 192.96C-5.19 193.66 -8.92 191.05 -9.61 187.12L-28.98 77.26C-29.67 73.34 -27.06 69.61 -23.14 68.92Z" />
	</g>
	<g >
		<path class="shp2" d="M-20.45 73.75L48.28 61.63C50.25 61.28 52.11 62.58 52.46 64.55L71.17 170.71C71.52 172.67 70.21 174.53 68.25 174.88L-0.49 187C-2.45 187.34 -4.31 186.04 -4.66 184.08L-23.37 77.92C-23.72 75.96 -22.42 74.09 -20.45 73.75Z" />
		<path fill-rule="evenodd" class="shp3" d="M33.38 120.09C33.78 120.71 34.09 121.4 33.91 121.9C33.52 122.97 32.38 123.08 31.8 123.09C31.92 123.3 32.79 124.96 32.23 126.49C31.96 127.24 31.17 128.23 29.6 128.03C29.92 128.86 30.55 130.92 29.86 132.82C29.23 134.53 28.01 134.54 27.09 134.21C25.66 133.69 21.74 131.08 21.74 131.08C21.74 131.08 21.87 133.39 21.62 134.08C21.27 135.03 19.23 134.81 19.2 134.79C19.16 134.78 19.14 134.75 19.13 134.71C19.12 134.07 19.14 129.47 19.14 129.47C19.14 129.47 16.28 127.56 15.91 127.3C15.55 127.04 14.89 126.18 14.89 125.42C14.88 124.92 14.92 124.16 15.06 123.77C15.12 123.61 15.21 123.51 15.3 123.54C15.4 123.57 19.61 126.27 19.61 126.27C19.61 126.27 19.86 123.98 20.15 123.19C20.37 122.59 20.87 122.41 21.25 122.92C21.63 123.42 22.03 124.03 22.23 124.33C22.42 124.64 22.4 124.8 22.32 125.37C22.2 126.12 22.04 127.88 22.04 127.88C22.04 127.88 26.43 130.92 27.25 131.22C27.71 131.39 28.3 131.45 28.5 130.9C28.75 130.23 28.26 128.37 28.01 127.53C24.49 125.91 23.09 122.38 23.85 120.28C24.11 119.57 24.74 120.1 25.03 119.31C25.05 119.24 25.18 118.87 25.2 118.8C25.31 118.49 25.49 118.16 26.33 118.46C27.54 118.9 29.29 120.27 30.53 120.72C31.42 121.05 32.09 121.16 32.2 120.85C32.35 120.45 32.06 119.86 31.68 119.31C27.87 117.25 20.14 111.99 19.24 111.66C19.18 111.25 19.51 108.92 21.42 109.71C23.33 110.5 26.22 113.05 27.63 113.78C27.28 111.65 24.79 107.9 24.79 107.9C24.79 107.9 25.72 106.23 26.71 107.23C27.71 108.23 29.38 112.89 29.38 112.89C29.38 112.89 38.33 115.26 40.03 110.57C40.97 108 40.11 106.44 39.85 105.8C39.78 105.63 39.79 105.53 39.89 105.53C40.2 105.53 41.13 105.74 41.65 106.59C42.09 107.33 42.41 108.83 41.54 111.21C39.99 115.47 35.3 116.43 29.4 114.96C30.89 116.05 33.6 116.99 34.89 117.55C35.1 117.77 35.28 120.58 33.39 120.09C33.39 120.09 33.38 120.09 33.38 120.09ZM36.97 108.26C37.5 106.82 36.98 105.91 36.59 105.07C36.66 104.82 37.81 104.38 38.25 104.94C38.58 105.37 39.38 107.37 38.67 109.3C37.56 112.35 34.5 112.11 32.68 110.97C30.43 109.56 29.25 106.49 29.76 104.59C30.18 103.04 31.39 102.41 31.93 102.42C32.46 102.42 33.55 102.84 34.19 103.55C36.18 105.76 34.54 108.84 34.54 108.84C34.54 108.84 36.36 109.95 36.97 108.26ZM32.11 104.6C31.57 104.32 31.04 104.09 30.94 104.38C30.56 105.56 32.66 107.8 33.76 108.33C34.47 106.62 32.85 104.99 32.11 104.6ZM29.88 125.61C30.65 123.5 25.75 121.66 25.03 121.4C24.45 122.97 29.21 127.45 29.88 125.61ZM15.58 134.29C15.07 135.7 14.28 135.52 14.28 135.52C14.28 135.52 13.61 133.39 12.4 132.95C11.76 132.72 9.86 132.54 8.93 135.1C7.63 138.66 8.66 141.23 11.81 142.38C15.42 143.69 20.44 133.8 25.11 135.49C30.1 137.31 30.51 143.13 28.89 147.57C28.05 149.88 26.08 150.9 23.82 150.08C21.17 149.11 18.9 146.9 20.01 143.86C20.44 142.68 21.56 142.89 21.8 142.98C21.8 142.98 21.56 146.35 24.74 147.51C25.33 147.72 26.61 147.52 27.13 146.09C27.65 144.66 28.16 140.03 24.23 138.6C20.61 137.28 16.33 147.35 10.68 145.29C4.32 142.98 6.25 136.69 7.09 134.36C8.11 131.58 10.42 129.24 13.21 130.25C15.64 131.14 16.1 132.87 15.58 134.29Z" />
		<path fill-rule="evenodd" class="shp4" d="M6.84 131.13C5.35 129.13 4.72 125.58 5.44 123.19L15.26 90.15C15.97 87.77 17.74 87.45 19.23 89.45L39.76 117.13C41.25 119.13 41.88 122.68 41.16 125.08L31.34 158.11C30.63 160.5 28.86 160.82 27.37 158.81L6.84 131.13Z" />
		<path class="shp5" d="M48 69.21C47.18 69.36 46.4 68.82 46.26 68C46.12 67.18 46.66 66.4 47.48 66.26C48.29 66.12 49.07 66.66 49.21 67.48C49.36 68.29 48.82 69.07 48 69.21Z" />
	</g>
</svg>