<svg xmlns="http://www.w3.org/2000/svg" viewBox="0 0 216 160" width="217" height="161">
	<defs>
		<clipPath clipPathUnits="userSpaceOnUse" id="cp1">
			<path d="M6 0L210 0C213.32 0 216 2.68 216 6L216 154C216 157.32 213.32 160 210 160L6 160C2.68 160 0 157.32 0 154L0 6C0 2.68 2.68 0 6 0Z" />
		</clipPath>
		<clipPath clipPathUnits="userSpaceOnUse" id="cp2">
			<path d="M0 0L216 0L216 216L0 216L0 0Z" />
		</clipPath>
		<clipPath clipPathUnits="userSpaceOnUse" id="cp3">
			<path d="M0 0L216 0L216 216L0 216L0 0Z" />
		</clipPath>
		<clipPath clipPathUnits="userSpaceOnUse" id="cp4">
			<path d="M0 0L216 0L216 216L0 216L0 0Z" />
		</clipPath>
		<clipPath clipPathUnits="userSpaceOnUse" id="cp5">
			<path d="M0 0L216 0L216 216L0 216L0 0Z" />
		</clipPath>
	</defs>
	<style>
		tspan { white-space:pre }
		.shp0 { fill: #ff2247 } 
		.shp1 { opacity: 0.102;fill: #091836 } 
		.shp2 { fill: #000000 } 
		.shp3 { fill: #ffffff } 
		.shp4 { fill: #3179f6 } 
		.shp5 { fill: #ffffff;stroke: #3179f6;stroke-width: 11.676 } 
		.shp6 { opacity: 0.302;fill: none;stroke: #ffffff;stroke-width: 1.8 } 
		.shp7 { opacity: 0.4;fill: #ffffff } 
	</style>
	<g >
		<g >
			<g >
				<g >
				</g>
				<g clip-path="url(#cp1)">
					<g >
						<path class="shp0" d="M0 0L216 0L216 216L0 216L0 0Z" />
						<g clip-path="url(#cp2)">
							<path fill-rule="evenodd" class="shp1" d="M92.27 138.81C-160.58 138.81 -365.56 -8.18 -365.56 -189.5C-365.56 -370.82 -160.58 -517.81 92.27 -517.81C345.12 -517.81 550.09 -370.82 550.09 -189.5C550.09 -8.18 345.12 138.81 92.27 138.81ZM92.78 118.66C298.13 118.66 464.6 4.81 464.6 -135.62C464.6 -276.06 298.13 -389.91 92.78 -389.91C-112.57 -389.91 -279.04 -276.06 -279.04 -135.62C-279.04 4.81 -112.57 118.66 92.78 118.66Z" />
						</g>
						<g clip-path="url(#cp3)">
							<g >
								<g >
									<g >
										<path class="shp2" d="M128.79 -64.57L203.07 -77.67C206.49 -78.27 209.75 -75.99 210.35 -72.57L230.4 41.11C231 44.53 228.72 47.78 225.3 48.39L151.01 61.49C147.59 62.09 144.34 59.81 143.73 56.39L123.69 -57.29C123.08 -60.71 125.36 -63.97 128.79 -64.57Z" />
										<path class="shp3" d="M128.79 -64.57L203.07 -77.67C206.49 -78.27 209.75 -75.99 210.35 -72.57L230.4 41.11C231 44.53 228.72 47.78 225.3 48.39L151.01 61.49C147.59 62.09 144.34 59.81 143.73 56.39L123.69 -57.29C123.08 -60.71 125.36 -63.97 128.79 -64.57Z" />
									</g>
									<g >
										<path class="shp2" d="M128.26 -67.52L202.55 -80.62C205.97 -81.23 209.23 -78.95 209.83 -75.53L229.87 38.15C230.48 41.58 228.2 44.83 224.78 45.43L150.49 58.53C147.07 59.13 143.82 56.86 143.21 53.43L123.17 -60.24C122.56 -63.67 124.84 -66.92 128.26 -67.52Z" />
										<path class="shp3" d="M128.26 -67.52L202.55 -80.62C205.97 -81.23 209.23 -78.95 209.83 -75.53L229.87 38.15C230.48 41.58 228.2 44.83 224.78 45.43L150.49 58.53C147.07 59.13 143.82 56.86 143.21 53.43L123.17 -60.24C122.56 -63.67 124.84 -66.92 128.26 -67.52Z" />
									</g>
									<g >
										<path class="shp2" d="M127.74 -70.48L202.03 -83.58C205.45 -84.18 208.71 -81.9 209.31 -78.48L229.35 35.2C229.96 38.62 227.68 41.87 224.26 42.48L149.97 55.58C146.55 56.18 143.29 53.9 142.69 50.48L122.65 -63.2C122.04 -66.62 124.32 -69.87 127.74 -70.48Z" />
										<path class="shp3" d="M127.74 -70.48L202.03 -83.58C205.45 -84.18 208.71 -81.9 209.31 -78.48L229.35 35.2C229.96 38.62 227.68 41.87 224.26 42.48L149.97 55.58C146.55 56.18 143.29 53.9 142.69 50.48L122.65 -63.2C122.04 -66.62 124.32 -69.87 127.74 -70.48Z" />
									</g>
									<g >
										<path class="shp2" d="M127.22 -73.43L201.51 -86.53C204.93 -87.13 208.18 -84.86 208.79 -81.43L228.83 32.24C229.44 35.67 227.16 38.92 223.74 39.52L149.45 52.62C146.03 53.23 142.77 50.95 142.17 47.53L122.13 -66.15C121.52 -69.58 123.8 -72.83 127.22 -73.43Z" />
										<path class="shp3" d="M127.22 -73.43L201.51 -86.53C204.93 -87.13 208.18 -84.86 208.79 -81.43L228.83 32.24C229.44 35.67 227.16 38.92 223.74 39.52L149.45 52.62C146.03 53.23 142.77 50.95 142.17 47.53L122.13 -66.15C121.52 -69.58 123.8 -72.83 127.22 -73.43Z" />
									</g>
									<g >
										<path class="shp2" d="M126.7 -76.39L200.99 -89.49C204.41 -90.09 207.66 -87.81 208.27 -84.39L228.31 29.29C228.92 32.71 226.64 35.97 223.21 36.57L148.93 49.67C145.51 50.27 142.25 47.99 141.65 44.57L121.6 -69.11C121 -72.53 123.28 -75.78 126.7 -76.39Z" />
										<path class="shp3" d="M126.7 -76.39L200.99 -89.49C204.41 -90.09 207.66 -87.81 208.27 -84.39L228.31 29.29C228.92 32.71 226.64 35.97 223.21 36.57L148.93 49.67C145.51 50.27 142.25 47.99 141.65 44.57L121.6 -69.11C121 -72.53 123.28 -75.78 126.7 -76.39Z" />
									</g>
									<g >
										<path class="shp4" d="M131.01 -71.05L200.73 -83.35C202.69 -83.69 204.56 -82.39 204.9 -80.43L223.8 26.72C224.14 28.68 222.84 30.54 220.88 30.89L151.15 43.18C149.19 43.53 147.33 42.22 146.98 40.26L128.09 -66.88C127.74 -68.84 129.05 -70.71 131.01 -71.05Z" />
										<path fill-rule="evenodd" class="shp5" d="M184.28 -23.74C184.84 -23 185.42 -22.04 185.18 -21.4C184.79 -20.33 183.65 -20.22 183.08 -20.2C183.2 -19.99 184.07 -18.33 183.51 -16.8C183.24 -16.07 182.47 -15.1 180.96 -15.26C181.28 -14.31 181.75 -12.45 181.12 -10.71C180.5 -9 179.27 -8.99 178.35 -9.32C176.93 -9.84 173.01 -12.45 173.01 -12.45C173.01 -12.45 173.13 -10.14 172.88 -9.45C172.54 -8.5 170.5 -8.72 170.46 -8.74C170.43 -8.75 170.4 -8.78 170.4 -8.82C170.38 -9.46 170.41 -14.06 170.41 -14.06C170.41 -14.06 167.54 -15.97 167.18 -16.23C166.82 -16.49 166.16 -17.35 166.15 -18.11C166.15 -18.61 166.18 -19.37 166.32 -19.76C166.38 -19.92 166.47 -20.02 166.57 -19.99C166.66 -19.96 170.87 -17.26 170.87 -17.26C170.87 -17.26 171.13 -19.55 171.41 -20.34C171.63 -20.94 172.13 -21.12 172.51 -20.61C172.89 -20.11 173.3 -19.5 173.49 -19.2C173.68 -18.89 173.67 -18.73 173.58 -18.16C173.47 -17.41 173.31 -15.65 173.31 -15.65C173.31 -15.65 177.7 -12.61 178.51 -12.31C178.98 -12.14 179.57 -12.08 179.77 -12.63C179.99 -13.24 179.61 -14.82 179.35 -15.74C175.78 -17.35 174.36 -20.9 175.13 -23.02C175.39 -23.73 176.02 -23.2 176.3 -23.99C176.33 -24.06 176.45 -24.43 176.48 -24.5C176.59 -24.81 176.77 -25.14 177.61 -24.84C178.81 -24.4 180.56 -23.03 181.8 -22.58C182.7 -22.25 183.36 -22.14 183.48 -22.45C183.68 -23.02 183.01 -23.98 182.43 -24.68C178.48 -26.89 171.36 -31.73 170.5 -32.04C170.44 -32.45 170.76 -34.79 172.67 -33.99C174.58 -33.2 177.48 -30.65 178.89 -29.92C178.54 -32.06 176.05 -35.8 176.05 -35.8C176.05 -35.8 176.97 -37.47 177.97 -36.47C178.97 -35.47 180.64 -30.81 180.64 -30.81C180.64 -30.81 189.59 -28.45 191.29 -33.13C192.23 -35.7 191.37 -37.26 191.11 -37.9C191.04 -38.07 191.05 -38.17 191.15 -38.17C191.46 -38.17 192.39 -37.96 192.9 -37.11C193.35 -36.37 193.67 -34.87 192.8 -32.49C191.25 -28.23 186.56 -27.27 180.65 -28.74C182.14 -27.66 184.86 -26.72 186.15 -26.15C186.36 -25.93 186.54 -23.12 184.65 -23.61C184.54 -23.64 184.42 -23.68 184.28 -23.74ZM187.57 -34.96C188.09 -36.39 187.58 -37.3 187.19 -38.14C187.26 -38.39 188.4 -38.84 188.84 -38.27C189.18 -37.84 189.98 -35.85 189.27 -33.91C188.16 -30.86 185.09 -31.11 183.28 -32.24C181.02 -33.65 179.84 -36.72 180.36 -38.63C180.78 -40.18 181.99 -40.8 182.53 -40.8C183.06 -40.79 184.15 -40.37 184.78 -39.66C186.77 -37.45 185.13 -34.37 185.13 -34.37C185.13 -34.37 186.96 -33.27 187.57 -34.96ZM183.26 -39C182.72 -39.29 182.18 -39.51 182.09 -39.23C181.71 -38.05 183.8 -35.81 184.9 -35.27C185.62 -36.98 183.99 -38.62 183.26 -39ZM180.94 -17.93C181.71 -20.04 176.82 -21.87 176.09 -22.14C175.52 -20.56 180.27 -16.09 180.94 -17.93ZM166.49 -9.73C165.98 -8.31 165.19 -8.5 165.19 -8.5C165.19 -8.5 164.52 -10.62 163.31 -11.06C162.68 -11.29 160.77 -11.48 159.84 -8.92C158.54 -5.36 159.57 -2.78 162.72 -1.64C166.33 -0.33 171.35 -10.22 176.02 -8.52C181.01 -6.71 181.42 -0.89 179.8 3.55C178.96 5.87 176.99 6.88 174.73 6.06C172.08 5.1 169.81 2.89 170.92 -0.16C171.35 -1.34 172.47 -1.12 172.71 -1.04C172.71 -1.04 172.47 2.33 175.65 3.49C176.24 3.7 177.52 3.51 178.04 2.08C178.56 0.64 179.07 -3.99 175.14 -5.42C171.52 -6.74 167.25 3.33 161.59 1.28C155.23 -1.04 157.16 -7.33 158.01 -9.66C159.02 -12.44 161.33 -14.78 164.12 -13.76C166.55 -12.88 167.01 -11.15 166.49 -9.73Z" />
										<path fill-rule="evenodd" class="shp6" d="M157.56 -11.84C156.07 -13.84 155.44 -17.39 156.16 -19.78L165.98 -52.82C166.69 -55.2 168.46 -55.52 169.95 -53.52L190.48 -25.84C191.97 -23.84 192.6 -20.29 191.88 -17.89L182.06 15.14C181.35 17.53 179.58 17.85 178.09 15.84L157.56 -11.84Z" />
										<path class="shp7" d="M216.52 28.61C215.7 28.76 214.92 28.21 214.78 27.4C214.63 26.58 215.18 25.8 215.99 25.66C216.81 25.51 217.59 26.06 217.73 26.87C217.88 27.69 217.33 28.47 216.52 28.61Z" />
										<path class="shp7" d="M151.52 40.07C150.7 40.22 149.92 39.67 149.78 38.86C149.64 38.04 150.18 37.26 151 37.12C151.81 36.97 152.59 37.52 152.73 38.34C152.88 39.15 152.33 39.93 151.52 40.07Z" />
									</g>
								</g>
							</g>
						</g>
						<g clip-path="url(#cp4)">
							<g >
								<g >
								</g>
							</g>
						</g>
						<g clip-path="url(#cp5)">
							<g >
								<g >
									<g >
										<g >
											<path class="shp2" d="M124.35 70.28L53.92 50.09C50.09 48.99 46.11 51.2 45.01 55.02L14.26 162.26C13.16 166.08 15.37 170.06 19.2 171.16L89.63 191.36C93.46 192.46 97.44 190.25 98.54 186.42L129.29 79.19C130.38 75.36 128.18 71.38 124.35 70.28Z" />
											<path class="shp3" d="M124.35 70.28L53.92 50.09C50.09 48.99 46.11 51.2 45.01 55.02L14.26 162.26C13.16 166.08 15.37 170.06 19.2 171.16L89.63 191.36C93.46 192.46 97.44 190.25 98.54 186.42L129.29 79.19C130.38 75.36 128.18 71.38 124.35 70.28Z" />
										</g>
										<path fill-rule="evenodd" class="shp0" d="M101.29 104.97L98.54 104.19C98.04 104.04 97.84 103.64 97.81 103.29L97.24 99.45L87.79 96.74L85.27 99.7C84.92 100.08 84.65 100.2 84.17 100.06L81.42 99.28C80.95 99.14 80.81 98.66 81.12 98.3L96.93 79.89C97.08 79.72 97.25 79.6 97.57 79.69L97.88 79.78C98.17 79.87 98.28 80.07 98.32 80.29L102.06 104.31C102.14 104.77 101.77 105.11 101.29 104.97ZM96.69 95.5L95.58 87.68L95.49 87.66L90.34 93.68L96.69 95.5Z" />
										<g >
											<path class="shp0" d="M86.83 113.34L66.01 124.87C65.14 125.36 64.83 126.45 65.31 127.32L76.84 148.12C77.32 148.99 78.42 149.3 79.29 148.82L100.1 137.28C100.97 136.8 101.28 135.71 100.8 134.84L89.27 114.04C88.79 113.17 87.7 112.85 86.83 113.34Z" />
										</g>
									</g>
									<g >
										<g >
											<path class="shp2" d="M-23.14 68.92L49.02 56.2C52.94 55.51 56.67 58.12 57.36 62.04L76.73 171.9C77.42 175.82 74.81 179.55 70.89 180.24L-1.27 192.96C-5.19 193.66 -8.92 191.05 -9.61 187.12L-28.98 77.26C-29.67 73.34 -27.06 69.61 -23.14 68.92Z" />
											<path class="shp3" d="M-23.14 68.92L49.02 56.2C52.94 55.51 56.67 58.12 57.36 62.04L76.73 171.9C77.42 175.82 74.81 179.55 70.89 180.24L-1.27 192.96C-5.19 193.66 -8.92 191.05 -9.61 187.12L-28.98 77.26C-29.67 73.34 -27.06 69.61 -23.14 68.92Z" />
										</g>
										<g >
											<path class="shp4" d="M-20.45 73.75L48.28 61.63C50.25 61.28 52.11 62.58 52.46 64.55L71.17 170.71C71.52 172.67 70.21 174.53 68.25 174.88L-0.49 187C-2.45 187.34 -4.31 186.04 -4.66 184.08L-23.37 77.92C-23.72 75.96 -22.42 74.09 -20.45 73.75Z" />
											<path fill-rule="evenodd" class="shp5" d="M33.38 120.09C33.78 120.71 34.09 121.4 33.91 121.9C33.52 122.97 32.38 123.08 31.8 123.09C31.92 123.3 32.79 124.96 32.23 126.49C31.96 127.24 31.17 128.23 29.6 128.03C29.92 128.86 30.55 130.92 29.86 132.82C29.23 134.53 28.01 134.54 27.09 134.21C25.66 133.69 21.74 131.08 21.74 131.08C21.74 131.08 21.87 133.39 21.62 134.08C21.27 135.03 19.23 134.81 19.2 134.79C19.16 134.78 19.14 134.75 19.13 134.71C19.12 134.07 19.14 129.47 19.14 129.47C19.14 129.47 16.28 127.56 15.91 127.3C15.55 127.04 14.89 126.18 14.89 125.42C14.88 124.92 14.92 124.16 15.06 123.77C15.12 123.61 15.21 123.51 15.3 123.54C15.4 123.57 19.61 126.27 19.61 126.27C19.61 126.27 19.86 123.98 20.15 123.19C20.37 122.59 20.87 122.41 21.25 122.92C21.63 123.42 22.03 124.03 22.23 124.33C22.42 124.64 22.4 124.8 22.32 125.37C22.2 126.12 22.04 127.88 22.04 127.88C22.04 127.88 26.43 130.92 27.25 131.22C27.71 131.39 28.3 131.45 28.5 130.9C28.75 130.23 28.26 128.37 28.01 127.53C24.49 125.91 23.09 122.38 23.85 120.28C24.11 119.57 24.74 120.1 25.03 119.31C25.05 119.24 25.18 118.87 25.2 118.8C25.31 118.49 25.49 118.16 26.33 118.46C27.54 118.9 29.29 120.27 30.53 120.72C31.42 121.05 32.09 121.16 32.2 120.85C32.35 120.45 32.06 119.86 31.68 119.31C27.87 117.25 20.14 111.99 19.24 111.66C19.18 111.25 19.51 108.92 21.42 109.71C23.33 110.5 26.22 113.05 27.63 113.78C27.28 111.65 24.79 107.9 24.79 107.9C24.79 107.9 25.72 106.23 26.71 107.23C27.71 108.23 29.38 112.89 29.38 112.89C29.38 112.89 38.33 115.26 40.03 110.57C40.97 108 40.11 106.44 39.85 105.8C39.78 105.63 39.79 105.53 39.89 105.53C40.2 105.53 41.13 105.74 41.65 106.59C42.09 107.33 42.41 108.83 41.54 111.21C39.99 115.47 35.3 116.43 29.4 114.96C30.89 116.05 33.6 116.99 34.89 117.55C35.1 117.77 35.28 120.58 33.39 120.09C33.39 120.09 33.38 120.09 33.38 120.09ZM36.97 108.26C37.5 106.82 36.98 105.91 36.59 105.07C36.66 104.82 37.81 104.38 38.25 104.94C38.58 105.37 39.38 107.37 38.67 109.3C37.56 112.35 34.5 112.11 32.68 110.97C30.43 109.56 29.25 106.49 29.76 104.59C30.18 103.04 31.39 102.41 31.93 102.42C32.46 102.42 33.55 102.84 34.19 103.55C36.18 105.76 34.54 108.84 34.54 108.84C34.54 108.84 36.36 109.95 36.97 108.26ZM32.11 104.6C31.57 104.32 31.04 104.09 30.94 104.38C30.56 105.56 32.66 107.8 33.76 108.33C34.47 106.62 32.85 104.99 32.11 104.6ZM29.88 125.61C30.65 123.5 25.75 121.66 25.03 121.4C24.45 122.97 29.21 127.45 29.88 125.61ZM15.58 134.29C15.07 135.7 14.28 135.52 14.28 135.52C14.28 135.52 13.61 133.39 12.4 132.95C11.76 132.72 9.86 132.54 8.93 135.1C7.63 138.66 8.66 141.23 11.81 142.38C15.42 143.69 20.44 133.8 25.11 135.49C30.1 137.31 30.51 143.13 28.89 147.57C28.05 149.88 26.08 150.9 23.82 150.08C21.17 149.11 18.9 146.9 20.01 143.86C20.44 142.68 21.56 142.89 21.8 142.98C21.8 142.98 21.56 146.35 24.74 147.51C25.33 147.72 26.61 147.52 27.13 146.09C27.65 144.66 28.16 140.03 24.23 138.6C20.61 137.28 16.33 147.35 10.68 145.29C4.32 142.98 6.25 136.69 7.09 134.36C8.11 131.58 10.42 129.24 13.21 130.25C15.64 131.14 16.1 132.87 15.58 134.29Z" />
											<path fill-rule="evenodd" class="shp6" d="M6.84 131.13C5.35 129.13 4.72 125.58 5.44 123.19L15.26 90.15C15.97 87.77 17.74 87.45 19.23 89.45L39.76 117.13C41.25 119.13 41.88 122.68 41.16 125.08L31.34 158.11C30.63 160.5 28.86 160.82 27.37 158.81L6.84 131.13Z" />
											<path class="shp7" d="M48 69.21C47.18 69.36 46.4 68.82 46.26 68C46.12 67.18 46.66 66.4 47.48 66.26C48.29 66.12 49.07 66.66 49.21 67.48C49.36 68.29 48.82 69.07 48 69.21Z" />
										</g>
									</g>
								</g>
							</g>
						</g>
					</g>
				</g>
			</g>
		</g>
	</g>
</svg>