<svg xmlns="http://www.w3.org/2000/svg" xmlns:xlink="http://www.w3.org/1999/xlink" viewBox="0 0 217 160"><defs><style>.cls-1{fill:#fecf2f;}.cls-2{fill:#feaf3c;}.cls-3{fill:#367df1;}.cls-4{fill:#365bf1;}.cls-5{fill:url(#linear-gradient);}.cls-6{fill:#fff;}</style><linearGradient id="linear-gradient" x1="85.15" y1="75.98" x2="199.42" y2="175.72" gradientUnits="userSpaceOnUse"><stop offset="0" stop-color="#3641f1"/><stop offset="1" stop-color="#367df1" stop-opacity="0"/></linearGradient></defs><title>Artboard 15</title><g id="Layer_1" data-name="Layer 1"><path class="cls-1" d="M212,0H5A5,5,0,0,0,0,5V155a5,5,0,0,0,3.14,4.64,5.39,5.39,0,0,1-1.52-1C110,159,194.78,122.51,217,35.48V5A5,5,0,0,0,212,0Z"/><path class="cls-2" d="M210.82,38.08c-.74,1-1.56,1.89-2.35,2.84s-1.64,1.83-2.49,2.71a100.93,100.93,0,0,1-10.91,9.87l-1.44,1.15-1.48,1.09-3,2.17-3,2.06-1.53,1-1.56,1-3.13,1.93c-1,.64-2.12,1.21-3.19,1.82s-2.12,1.22-3.2,1.8l-3.27,1.67a207.26,207.26,0,0,1-27.08,11.27,258,258,0,0,1-28.27,7.76A371.53,371.53,0,0,1,56.8,95.89,560.46,560.46,0,0,1,0,96.08V106a567.06,567.06,0,0,0,57.4-2.64,376.36,376.36,0,0,0,58.68-10.29A260.31,260.31,0,0,0,144.46,84a206.73,206.73,0,0,0,27-12.59l3.24-1.83c1.07-.64,2.11-1.31,3.17-2s2.12-1.3,3.15-2l3.08-2.09,1.54-1.05,1.5-1.1,3-2.21,2.9-2.32,1.45-1.16,1.4-1.23a102.87,102.87,0,0,0,10.58-10.4c.82-.93,1.59-1.9,2.39-2.84s1.53-1.94,2.24-2.95A45.39,45.39,0,0,0,215,32,45.19,45.19,0,0,1,210.82,38.08Z"/><path class="cls-2" d="M212.29,35.64a139.08,139.08,0,0,1-13.38,8.43A173.36,173.36,0,0,1,170.14,56.7a202.54,202.54,0,0,1-30.29,7.62c-5.11.94-10.28,1.53-15.42,2.15l-7.76.65-1.93.15-1.95.08-3.88.16-3.88.16c-1.29,0-2.59,0-3.89,0H93.38l-7.76-.32-3.87-.17-3.87-.32-7.72-.63-7.71-.94c-5.13-.54-10.23-1.5-15.33-2.3A383.89,383.89,0,0,1,0,51.63V77.55a398,398,0,0,0,44.73,5.57c5.47.27,10.91.71,16.4.7l8.19.13,8.21-.2,4.09-.1,4.1-.25,8.17-.53L102,82c1.36-.15,2.71-.26,4.07-.46l4-.6,4-.6,2-.3,2-.37,8-1.54c5.32-1.22,10.63-2.4,15.85-4A211.21,211.21,0,0,0,172.65,63a178.33,178.33,0,0,0,28.06-16,143.2,143.2,0,0,0,12.63-10q1.86-1.65,3.66-3.38V32.1C215.45,33.31,213.88,34.5,212.29,35.64Z"/><path class="cls-2" d="M210,40S148,125,0,118.52V138s142,13,210-89Z"/><path class="cls-3" d="M1.62,158.67A5,5,0,0,0,5,160H212a5,5,0,0,0,5-5V35.48C172.33,108.07,92.57,147.74,1.62,158.67Z"/><path class="cls-4" d="M156.79,117.65c8.92-13.09,18.32-25.92,28.05-38.53S204.59,54.1,215,42c-11.74,10.83-23.14,22-34.32,33.52s-22.07,23.25-32.61,35.42S127.4,135.72,118,149.11q-3.72,5.35-7.25,10.89h20.12l1.16-2.2C139.45,144.11,147.89,130.74,156.79,117.65Z"/><path class="cls-4" d="M183.36,111.21A330.31,330.31,0,0,1,197.2,75.82,321.64,321.64,0,0,1,215,42a322.94,322.94,0,0,0-21.13,32.09,333.63,333.63,0,0,0-17.52,34.46,260.78,260.78,0,0,0-13,36.78c-1.32,4.82-2.4,9.72-3.35,14.67h12.73c.41-4.1.92-8.2,1.62-12.29A250.33,250.33,0,0,1,183.36,111.21Z"/><path class="cls-5" d="M1.62,158.67A5,5,0,0,0,5,160H212a5,5,0,0,0,5-5V35.48C172.33,108.07,92.57,147.74,1.62,158.67Z"/><path class="cls-6" d="M127.43,114C90.91,134.84,48.08,148.19,0,153.82V155a5,5,0,0,0,5,5H26.47c39.26-7.07,74.77-19.54,105.91-37.27C167.64,102.66,196,76.5,217,44.78V25.64C196.31,62.24,166.23,92,127.43,114Z"/></g></svg>