<svg xmlns="http://www.w3.org/2000/svg" viewBox="0 0 168.41 103.52"><defs><style>.cls-1{fill:#ff5772;}.cls-2{fill:#fc3f5f;}.cls-3{fill:#eb3d5a;}.cls-4{fill:#ffbdc9;}.cls-5,.cls-9{fill:#091d35;}.cls-5{opacity:0.3;}.cls-6{fill:#e3e0d6;}.cls-7{fill:#fffcf2;}.cls-8{fill:#f2efe5;}</style></defs><title>2Artboard 630</title><g id="Layer_3" data-name="Layer 3"><rect class="cls-1" x="129.56" y="38.94" width="16.95" height="12.54"/><path class="cls-1" d="M162.26,23.29,119.67,16.1A17.64,17.64,0,0,0,109,17.63L81.28,31.12a6.81,6.81,0,0,0-2.53,2.13q23.11,12.45,58.13,10.18a7.76,7.76,0,0,0,5.77-1.27C154,40.79,162,35.42,166.52,25.63A7.36,7.36,0,0,0,162.26,23.29Z"/><path class="cls-2" d="M133.62,42.86,78.75,33.25a6.85,6.85,0,0,0-1.36,4.08V85.44a7.38,7.38,0,0,0,5.86,7.22l50.35,10.59a13,13,0,0,0,5.48,0c4.33-18.16,5.2-35.82.84-52.72A7.62,7.62,0,0,0,133.62,42.86Z"/><path class="cls-3" d="M166.52,25.63,142.61,42.19A6.12,6.12,0,0,0,140,47.12l-.9,56.09a13,13,0,0,0,4.57-2l21.77-15a6.92,6.92,0,0,0,3-5.69v-50A7.38,7.38,0,0,0,166.52,25.63Z"/><ellipse class="cls-4" cx="92.76" cy="50.08" rx="4.89" ry="5.93" transform="translate(-11.92 37.6) rotate(-21.57)"/><ellipse class="cls-4" cx="92.76" cy="65.76" rx="4.89" ry="5.93" transform="translate(-17.68 38.7) rotate(-21.57)"/><ellipse class="cls-4" cx="92.76" cy="81.43" rx="4.89" ry="5.93" transform="translate(-23.44 39.8) rotate(-21.57)"/><path class="cls-5" d="M81.59,78,80.3,89.38a2.84,2.84,0,0,0,2.22,3.1L106,97.57V61Z"/><ellipse class="cls-4" cx="122.3" cy="55.91" rx="4.89" ry="5.93" transform="translate(-11.99 48.87) rotate(-21.57)"/><ellipse class="cls-4" cx="150.53" cy="53.93" rx="5.93" ry="3.01" transform="translate(70.16 192.16) rotate(-79.54)"/><ellipse class="cls-4" cx="161.58" cy="46.74" rx="5.93" ry="3.01" transform="translate(86.26 197.14) rotate(-79.54)"/><ellipse class="cls-4" cx="150.53" cy="79.52" rx="5.93" ry="3.01" transform="translate(45 213.1) rotate(-79.54)"/><ellipse class="cls-4" cx="161.58" cy="72.33" rx="5.93" ry="3.01" transform="translate(61.1 218.08) rotate(-79.54)"/><ellipse class="cls-4" cx="125.59" cy="28.12" rx="5.93" ry="2.48"/><ellipse class="cls-4" cx="132.84" cy="35.49" rx="5.93" ry="2.48"/><ellipse class="cls-4" cx="102.9" cy="30.22" rx="5.93" ry="2.48"/><ellipse class="cls-4" cx="148.34" cy="26.03" rx="5.93" ry="2.48"/><ellipse class="cls-4" cx="117.87" cy="21.53" rx="5.93" ry="2.48"/><ellipse class="cls-4" cx="122.3" cy="72.62" rx="4.89" ry="5.93" transform="translate(-18.13 50.04) rotate(-21.57)"/><ellipse class="cls-4" cx="122.3" cy="89.32" rx="4.89" ry="5.93" transform="matrix(0.93, -0.37, 0.37, 0.93, -24.27, 51.21)"/><path class="cls-6" d="M83.75,8.94,41.91.23A11.18,11.18,0,0,0,31.3,3.74L2.84,35.61a11.19,11.19,0,0,0-2.28,11L13.94,87.14a11.17,11.17,0,0,0,8.34,7.44l41.83,8.71a11.19,11.19,0,0,0,10.62-3.5l28.46-31.88A11.17,11.17,0,0,0,105.46,57L92.09,16.39A11.17,11.17,0,0,0,83.75,8.94Z"/><path class="cls-7" d="M57.42,46.82,86.54,14.21A3,3,0,0,0,85.3,9.38a11.47,11.47,0,0,0-1.55-.44L41.91.23A11.18,11.18,0,0,0,31.3,3.74L2.84,35.61a12.13,12.13,0,0,0-.95,1.22A3.06,3.06,0,0,0,3.8,41.52l42.73,8.89A11.45,11.45,0,0,0,57.42,46.82Z"/><path class="cls-8" d="M46.93,50.5,4.87,41.74A3.74,3.74,0,0,0,.56,46.56L13.94,87.14a11.17,11.17,0,0,0,8.34,7.44l41.83,8.71a11.51,11.51,0,0,0,1.4.2,3.1,3.1,0,0,0,3.22-4L55,57.66A10.77,10.77,0,0,0,46.93,50.5Z"/><ellipse class="cls-9" cx="43.54" cy="24.46" rx="7.65" ry="3.48" transform="translate(-5.47 14.86) rotate(-18.24)"/><ellipse class="cls-9" cx="39.26" cy="11.49" rx="7.65" ry="3.48" transform="translate(-1.62 12.87) rotate(-18.24)"/><ellipse class="cls-9" cx="48.79" cy="37.58" rx="7.65" ry="3.48" transform="translate(-9.31 17.16) rotate(-18.24)"/><ellipse class="cls-9" cx="43.54" cy="64.91" rx="3.48" ry="7.65" transform="translate(-30.2 39) rotate(-36.79)"/><ellipse class="cls-9" cx="32.79" cy="74.42" rx="3.48" ry="7.65" transform="translate(-38.04 34.46) rotate(-36.79)"/><ellipse class="cls-9" cx="50.39" cy="88.78" rx="3.48" ry="7.65" transform="translate(-43.13 47.86) rotate(-36.79)"/><ellipse class="cls-9" cx="15.26" cy="58.24" rx="3.48" ry="7.65" transform="translate(-31.84 20.74) rotate(-36.79)"/><ellipse class="cls-9" cx="23.82" cy="84.03" rx="3.48" ry="7.65" transform="translate(-45.58 31) rotate(-36.79)"/><ellipse class="cls-9" cx="82.21" cy="56.95" rx="7.65" ry="3.48" transform="translate(4.16 119.48) rotate(-73.41)"/></g></svg>