<?xml version="1.0" encoding="UTF-8"?>
<svg width="57px" height="60px" viewBox="0 0 57 60" version="1.1" xmlns="http://www.w3.org/2000/svg" xmlns:xlink="http://www.w3.org/1999/xlink">
    <!-- Generator: Sketch 51.2 (57519) - http://www.bohemiancoding.com/sketch -->
    <title>Gem</title>
    <desc>Created with Sketch.</desc>
    <defs>
        <path d="M52,42.8619964 L51.9277066,42.7897029 L43.6862547,51.0311548 L43.7585481,51.1034483 L9.1537326,51.1034483 L0.912280702,42.8619964 L0.912280702,9.13800363 L0.984574139,9.21029707 L9.22602604,0.968845162 L9.1537326,0.896551724 L43.7585481,0.896551724 L52,9.13800363 L52,42.8619964 Z" id="path-1"></path>
        <filter x="-3.9%" y="-4.0%" width="107.8%" height="115.9%" filterUnits="objectBoundingBox" id="filter-2">
            <feOffset dx="0" dy="4" in="SourceAlpha" result="shadowOffsetOuter1"></feOffset>
            <feColorMatrix values="0 0 0 0 0.168627451   0 0 0 0 0.184313725   0 0 0 0 0.231372549  0 0 0 0.1 0" type="matrix" in="shadowOffsetOuter1"></feColorMatrix>
        </filter>
    </defs>
    <g id="Symbols" stroke="none" stroke-width="1" fill="none" fill-rule="evenodd">
        <g id="Games-/-Game-Thumbnail-/-Keno" transform="translate(-98.000000, 18.000000)">
            <g id="Gem" transform="translate(126.119854, 10.119854) rotate(-10.000000) translate(-126.119854, -10.119854) translate(100.119854, -15.880146)">
                <g id="Body" transform="translate(0.000000, 0.000000)">
                    <g id="Combined-Shape">
                        <use fill="black" fill-opacity="1" filter="url(#filter-2)" xlink:href="#path-1"></use>
                        <use fill="#00E404" fill-rule="evenodd" xlink:href="#path-1"></use>
                    </g>
                    <polygon id="Path-2" fill="#091836" opacity="0.1" points="38.797557 8.11524063 43.6368973 0.855026714 51.9188506 9.09297541 44.8602051 14.0455581"></polygon>
                    <polygon id="Path-2" fill="#091836" opacity="0.1" transform="translate(7.559388, 7.437463) scale(-1, 1) translate(-7.559388, -7.437463) " points="0.850380442 8.10337477 5.79091666 0.826865913 14.2683965 9.15758076 6.90213931 14.0480609"></polygon>
                    <polygon id="Path-2" fill="#091836" opacity="0.200000003" transform="translate(45.407467, 44.645262) scale(1, -1) translate(-45.407467, -44.645262) " points="38.8323297 45.2516629 43.7593674 38.1244928 51.9826039 46.3862701 44.8055917 51.1660313"></polygon>
                    <polygon id="Path-2" fill="#091836" opacity="0.1" transform="translate(7.573962, 44.363749) scale(-1, -1) translate(-7.573962, -44.363749) " points="0.879526826 45.1973259 5.81002923 37.5854866 14.2683965 45.7401411 6.9312857 51.142012"></polygon>
                    <path d="M44.836718,38.1551475 L44.7848889,38.1033184 L38.8763652,44.011842 L38.9281944,44.0636711 L14.11905,44.0636711 L8.21052632,38.1551475 L8.21052632,13.9774892 L8.26235547,14.0293183 L14.1708791,8.12079467 L14.11905,8.06896552 L38.9281944,8.06896552 L44.836718,13.9774892 L44.836718,38.1551475 Z" id="Combined-Shape" fill="#FFFFFF" opacity="0.449999988"></path>
                </g>
                <path d="M26,34.0394207 C22.5367999,34.0394207 19.0501997,32.7758207 19.0501997,29.5934205 C19.0501997,27.9086205 20.2435998,26.4578204 22.0219998,25.7090204 C20.3839998,25.0304203 19.3075997,23.9306203 19.3075997,22.1054202 C19.3075997,19.0400201 22.7941999,17.9168201 26,17.9168201 C29.2058001,17.9168201 32.6924003,19.0400201 32.6924003,22.1054202 C32.6924003,23.9306203 31.5926002,25.0304203 29.9546002,25.7090204 C31.7330002,26.4578204 32.9498003,27.9086205 32.9498003,29.5934205 C32.9498003,32.7758207 29.4632001,34.0394207 26,34.0394207 Z M26,23.8838203 C26.9594,23.7434203 27.8720001,23.2988203 27.8720001,22.8074203 C27.8720001,22.1756202 27.17,21.7544202 26,21.7544202 C24.8066,21.7544202 24.1045999,22.1756202 24.1045999,22.8074203 C24.1045999,23.2988203 25.0406,23.7434203 26,23.8838203 Z M26,30.2018205 C27.2870001,30.2018205 28.1528001,29.7338205 28.1528001,29.0552205 C28.1528001,28.4468205 26.9828,27.9788205 26,27.8384205 C24.9938,27.9788205 23.8471999,28.4468205 23.8471999,29.0552205 C23.8471999,29.7338205 24.6661999,30.2018205 26,30.2018205 Z" id="8" fill="#2B2F3B" opacity="0.600000024"></path>
                <path d="M6.41677243,8.14343626 C6.25859746,7.70729102 6.48564977,7.4825728 6.92008212,7.64012657 L10.242892,8.84519617 C11.1083134,9.15905496 12.5062949,9.16092048 13.3768603,8.84519617 L16.6996702,7.64012657 C17.1358154,7.4819516 17.3605336,7.70900391 17.2029798,8.14343626 L15.9979102,11.4662461 C15.6840515,12.3316676 15.6821859,13.7296491 15.9979102,14.6002144 L17.2029798,17.9230243 C17.3611548,18.3591695 17.1341025,18.5838878 16.6996702,18.426334 L13.3768603,17.2212644 C12.5114388,16.9074056 11.1134574,16.9055401 10.242892,17.2212644 L6.92008212,18.426334 C6.48393688,18.584509 6.25921866,18.3574567 6.41677243,17.9230243 L7.62184203,14.6002144 C7.93570082,13.734793 7.93756634,12.3368115 7.62184203,11.4662461 L6.41677243,8.14343626 Z" id="Shine" fill="#FFFFFF" transform="translate(11.809876, 13.033230) rotate(55.000000) translate(-11.809876, -13.033230) "></path>
            </g>
        </g>
    </g>
</svg>