<?xml version="1.0" encoding="UTF-8"?>
<svg width="216px" height="160px" viewBox="0 0 216 160" version="1.1" xmlns="http://www.w3.org/2000/svg" xmlns:xlink="http://www.w3.org/1999/xlink">
    <!-- Generator: Sketch 51.2 (57519) - http://www.bohemiancoding.com/sketch -->
    <title>Game Thumbnail 09</title>
    <desc>Created with Sketch.</desc>
    <defs>
        <rect id="path-1" x="0" y="0" width="216" height="160" rx="6"></rect>
        <rect id="path-3" x="0" y="0" width="216" height="216"></rect>
        <path d="M52,42.8619964 L51.9277066,42.7897029 L43.6862547,51.0311548 L43.7585481,51.1034483 L9.1537326,51.1034483 L0.912280702,42.8619964 L0.912280702,9.13800363 L0.984574139,9.21029707 L9.22602604,0.968845162 L9.1537326,0.896551724 L43.7585481,0.896551724 L52,9.13800363 L52,42.8619964 Z" id="path-5"></path>
        <filter x="-3.9%" y="-4.0%" width="107.8%" height="115.9%" filterUnits="objectBoundingBox" id="filter-6">
            <feOffset dx="0" dy="4" in="SourceAlpha" result="shadowOffsetOuter1"></feOffset>
            <feColorMatrix values="0 0 0 0 0.168627451   0 0 0 0 0.184313725   0 0 0 0 0.231372549  0 0 0 0.1 0" type="matrix" in="shadowOffsetOuter1"></feColorMatrix>
        </filter>
    </defs>
    <g id="Symbols" stroke="none" stroke-width="1" fill="none" fill-rule="evenodd">
        <g id="Games-/-Game-Thumbnail-/-Keno">
            <g id="Game-Thumbnail-09">
                <mask id="mask-2" fill="white">
                    <use xlink:href="#path-1"></use>
                </mask>
                <g id="Game_Mask"></g>
                <g id="IN" mask="url(#mask-2)">
                    <mask id="mask-4" fill="white">
                        <use xlink:href="#path-3"></use>
                    </mask>
                    <use id="Rectangle-2" fill="#3179F6" xlink:href="#path-3"></use>
                    <g id="Group-23" mask="url(#mask-4)">
                        <g transform="translate(112.066059, 119.401864) rotate(-10.000000) translate(-112.066059, -119.401864) translate(-23.433941, -15.598136)">
                            <g id="Group-22" opacity="0.119999997" stroke-width="1" fill="none" transform="translate(-0.000000, -0.000000)">
                                <rect id="Rectangle-67-Copy" fill="#081C36" x="68.696294" y="0.449123459" width="64.8" height="64.8917197" rx="4.50000018"></rect>
                                <rect id="Rectangle-67-Copy-2" fill="#081C36" x="138.6" y="2.25167123" width="61.2" height="61.2866242" rx="4.50000018"></rect>
                                <rect id="Rectangle-67" fill="#081C36" x="0.736833822" y="68.9459387" width="64.8" height="64.8917197" rx="4.50000018"></rect>
                                <rect id="Rectangle-67-Copy-6" fill="#081C36" x="205.515214" y="68.9459387" width="64.8" height="64.8917197" rx="4.50000018"></rect>
                                <rect id="Rectangle-67" fill="#081C36" x="0.736833822" y="137.442754" width="64.8" height="64.8917197" rx="4.50000018"></rect>
                                <rect id="Rectangle-67-Copy" fill="#081C36" x="68.696294" y="137.442754" width="64.8" height="64.8917197" rx="4.50000018"></rect>
                                <rect id="Rectangle-67-Copy-2" fill="#081C36" x="136.8" y="137.442754" width="64.8" height="64.8917197" rx="4.50000018"></rect>
                                <rect id="Rectangle-67-Copy-6" fill="#081C36" x="205.515214" y="137.442754" width="64.8" height="64.8917197" rx="4.50000018"></rect>
                                <rect id="Rectangle-67-Copy-6" fill="#081C36" x="205.515214" y="0.449123459" width="64.8" height="64.8917197" rx="4.50000018"></rect>
                                <rect id="Rectangle-67-Copy-2" fill="#081C36" x="136.8" y="68.9459387" width="64.8" height="64.8917197" rx="4.50000018"></rect>
                                <rect id="Rectangle-67-Copy" fill="#081C36" x="68.696294" y="68.9459387" width="64.8" height="64.8917197" rx="4.50000018"></rect>
                                <rect id="Rectangle-67" fill="#081C36" x="0.736833822" y="0.449123459" width="64.8" height="64.8917197" rx="4.50000018"></rect>
                            </g>
                            <path d="M106.680344,40.5733273 L106.680344,36.4549271 L101.602544,36.4549271 C105.323144,33.997927 106.539944,32.2429269 106.539944,30.1135269 C106.539944,26.9779267 103.895744,24.7315267 99.847544,24.7315267 C97.6713439,24.7315267 95.0505438,25.4569267 93.2487438,27.3757268 L95.8227439,30.5113269 C97.0161439,29.5051268 98.279744,28.8967268 99.941144,28.8967268 C100.947344,28.8967268 101.742944,29.3647268 101.742944,30.1135269 C101.742944,31.2835269 101.064344,31.8685269 93.9273438,36.8995271 L93.9273438,40.5733273 L106.680344,40.5733273 Z" id="2-copy" fill="#FFFFFF"></path>
                            <text id="3" fill="#FFFFFF" font-family="ProximaNova-Black, Proxima Nova" font-size="23.4000009" font-weight="700">
                                <tspan x="161.02485" y="39.5733273">3</tspan>
                            </text>
                            <path d="M31.2211838,109.327543 C29.3257837,109.327543 27.7345836,108.695743 26.6347836,107.712943 L28.1089837,105.162342 C28.9513837,105.957942 29.8405837,106.379142 31.2211838,106.379142 C33.7951839,106.379142 35.1289839,104.202942 35.1289839,101.979942 L35.1289839,101.628942 C34.3801839,102.681942 32.8123838,103.641342 31.1041838,103.641342 C28.2961837,103.641342 25.7923836,101.886342 25.7923836,98.5635421 C25.7923836,95.521542 28.2025837,93.2049419 31.7593838,93.2049419 C36.509584,93.2049419 38.4985841,96.8553421 38.4985841,101.254542 C38.4985841,105.981342 35.830984,109.327543 31.2211838,109.327543 Z M32.0401838,100.786542 C33.2335839,100.786542 34.3567839,100.248342 35.1055839,99.3123422 C34.9651839,97.8147421 34.1227839,96.1533421 31.9465838,96.1533421 C30.1447837,96.1533421 29.1619837,97.3701421 29.1619837,98.4465421 C29.1619837,100.084542 30.5893838,100.786542 32.0401838,100.786542 Z" id="9" fill="#FFFFFF" opacity="0.400000006"></path>
                            <path d="M102.134884,109.350943 C105.878884,109.350943 108.289084,107.455543 108.289084,104.764542 C108.289084,102.424542 106.229884,101.184342 104.638684,101.020542 C106.370284,100.716342 108.055084,99.4293422 108.055084,97.4637421 C108.055084,94.866342 105.808684,93.2283419 102.158284,93.2283419 C99.4204837,93.2283419 97.4548836,94.281342 96.1912836,95.708742 L97.8526836,97.7913421 C98.9524837,96.7383421 100.309684,96.1767421 101.830684,96.1767421 C103.445284,96.1767421 104.732284,96.7851421 104.732284,98.0253421 C104.732284,99.1719422 103.562284,99.6867422 101.830684,99.6867422 C101.245684,99.6867422 100.169284,99.6867422 99.8884837,99.6633422 L99.8884837,102.658542 C100.122484,102.635142 101.175484,102.611742 101.830684,102.611742 C104.006884,102.611742 104.966284,103.173342 104.966284,104.413542 C104.966284,105.583542 103.913284,106.402542 102.017884,106.402542 C100.496884,106.402542 98.7886837,105.747342 97.7356836,104.624142 L95.9806836,106.847142 C97.1272836,108.251143 99.2800837,109.350943 102.134884,109.350943 Z" id="3" fill="#FFFFFF" opacity="0.400000006"></path>
                            <path d="M233.203264,109.070143 L233.203264,93.4623419 L230.301664,93.4623419 L225.387664,98.3997421 L227.283064,100.388742 L229.880464,97.7445421 L229.880464,109.070143 L233.203264,109.070143 Z M247.594265,109.070143 L247.594265,106.145142 L241.229465,106.145142 C245.277665,103.196742 247.477265,100.880142 247.477265,98.2125421 C247.477265,95.100342 244.856465,93.2283419 241.510265,93.2283419 C239.334065,93.2283419 237.017464,94.023942 235.496464,95.778942 L237.391864,97.9785421 C238.444865,96.8787421 239.802065,96.1767421 241.580465,96.1767421 C242.867465,96.1767421 244.107665,96.8319421 244.107665,98.2125421 C244.107665,100.131342 242.235665,101.722542 235.847464,106.449342 L235.847464,109.070143 L247.594265,109.070143 Z" id="12" fill="#FFFFFF" opacity="0.400000006"></path>
                            <text id="18" fill="#091836" opacity="0.400000006" font-family="ProximaNova-Bold, Proxima Nova" font-size="23.4000009" font-weight="bold">
                                <tspan x="88.2411436" y="176.566958">18</tspan>
                            </text>
                            <path d="M164.39445,177.566958 L164.39445,161.959157 L161.49285,161.959157 L156.57885,166.896557 L158.47425,168.885558 L161.07165,166.241357 L161.07165,177.566958 L164.39445,177.566958 Z M172.09305,177.824358 C170.19765,177.824358 168.60645,177.192558 167.50665,176.209758 L168.98085,173.659158 C169.82325,174.454758 170.71245,174.875958 172.09305,174.875958 C174.66705,174.875958 176.00085,172.699758 176.00085,170.476758 L176.00085,170.125758 C175.25205,171.178758 173.68425,172.138158 171.97605,172.138158 C169.16805,172.138158 166.66425,170.383158 166.66425,167.060357 C166.66425,164.018357 169.07445,161.701757 172.63125,161.701757 C177.38145,161.701757 179.37045,165.352157 179.37045,169.751358 C179.37045,174.478158 176.70285,177.824358 172.09305,177.824358 Z M172.91205,169.283358 C174.10545,169.283358 175.22865,168.745158 175.97745,167.809157 C175.83705,166.311557 174.99465,164.650157 172.81845,164.650157 C171.01665,164.650157 170.03385,165.866957 170.03385,166.943357 C170.03385,168.581357 171.46125,169.283358 172.91205,169.283358 Z" id="19" fill="#FFFFFF" opacity="0.400000006"></path>
                            <path d="M235.531564,177.566958 L235.531564,174.641958 L229.166764,174.641958 C233.214964,171.693558 235.414564,169.376958 235.414564,166.709357 C235.414564,163.597157 232.793764,161.725157 229.447564,161.725157 C227.271364,161.725157 224.954764,162.520757 223.433764,164.275757 L225.329164,166.475357 C226.382164,165.375557 227.739364,164.673557 229.517764,164.673557 C230.804764,164.673557 232.044964,165.328757 232.044964,166.709357 C232.044964,168.628157 230.172964,170.219358 223.784764,174.946158 L223.784764,177.566958 L235.531564,177.566958 Z M243.978965,177.847758 C239.509565,177.847758 237.520564,173.799558 237.520564,169.774758 C237.520564,165.749957 239.509565,161.725157 243.978965,161.725157 C248.448365,161.725157 250.437365,165.749957 250.437365,169.774758 C250.437365,173.799558 248.448365,177.847758 243.978965,177.847758 Z M243.978965,174.899358 C246.201965,174.899358 247.044365,172.652958 247.044365,169.774758 C247.044365,166.896557 246.225365,164.673557 243.978965,164.673557 C241.755965,164.673557 240.913565,166.896557 240.913565,169.774758 C240.913565,172.652958 241.755965,174.899358 243.978965,174.899358 Z" id="20" fill="#FFFFFF" opacity="0.400000006"></path>
                            <text id="4" fill="#FFFFFF" font-family="ProximaNova-Black, Proxima Nova" font-size="23.4000009" font-weight="700">
                                <tspan x="229.517764" y="39.5733273">4</tspan>
                            </text>
                            <path d="M166.98015,109.070143 L166.98015,93.4623419 L162.90855,93.4623419 L156.94155,99.3123422 L159.60915,102.096942 L162.25335,99.4761422 L162.25335,109.070143 L166.98015,109.070143 Z M178.28235,109.070143 L178.28235,93.4623419 L174.21075,93.4623419 L168.24375,99.3123422 L170.91135,102.096942 L173.55555,99.4761422 L173.55555,109.070143 L178.28235,109.070143 Z" id="11" fill="#FFFFFF"></path>
                            <g id="Gem" stroke-width="1" fill="none" transform="translate(74.262622, 143.325239)">
                                <g id="Body" transform="translate(0.000000, -0.000000)">
                                    <g id="Combined-Shape">
                                        <use fill="black" fill-opacity="1" filter="url(#filter-6)" xlink:href="#path-5"></use>
                                        <use fill="#00E404" fill-rule="evenodd" xlink:href="#path-5"></use>
                                    </g>
                                    <polygon id="Path-2" fill="#091836" opacity="0.1" points="38.797557 8.11524063 43.6368973 0.855026714 51.9188506 9.09297541 44.8602051 14.0455581"></polygon>
                                    <polygon id="Path-2" fill="#091836" opacity="0.1" transform="translate(7.559388, 7.437463) scale(-1, 1) translate(-7.559388, -7.437463) " points="0.850380442 8.10337477 5.79091666 0.826865913 14.2683965 9.15758076 6.90213931 14.0480609"></polygon>
                                    <path d="M44.836718,38.1551475 L44.7848889,38.1033184 L38.8763652,44.011842 L38.9281944,44.0636711 L14.11905,44.0636711 L8.21052632,38.1551475 L8.21052632,13.9774892 L8.26235547,14.0293183 L14.1708791,8.12079467 L14.11905,8.06896552 L38.9281944,8.06896552 L44.836718,13.9774892 L44.836718,38.1551475 Z" id="Combined-Shape" fill="#FFFFFF" opacity="0.449999988"></path>
                                </g>
                                <path d="M23.0398999,33.7586207 L23.0398999,18.1508201 L18.9682997,18.1508201 L13.0012995,24.0008203 L15.6688996,26.7854204 L18.3130997,24.1646203 L18.3130997,33.7586207 L23.0398999,33.7586207 Z M31.6511002,34.0394207 C26.9945,34.0394207 24.7246999,30.2018205 24.7246999,25.9664204 C24.7246999,21.7310202 26.9945,17.9168201 31.6511002,17.9168201 C36.3077004,17.9168201 38.5775005,21.7310202 38.5775005,25.9664204 C38.5775005,30.2018205 36.3077004,34.0394207 31.6511002,34.0394207 Z M31.6511002,29.8742205 C33.1487003,29.8742205 33.8273003,28.6106205 33.8273003,25.9664204 C33.8273003,23.3222203 33.1487003,22.0820202 31.6511002,22.0820202 C30.1535002,22.0820202 29.4749001,23.3222203 29.4749001,25.9664204 C29.4749001,28.6106205 30.1535002,29.8742205 31.6511002,29.8742205 Z" id="10" fill="#2B2F3B" opacity="0.600000024"></path>
                                <path d="M4.32409957,7.71838671 C4.16592459,7.28224147 4.39297691,7.05752326 4.82740926,7.21507702 L8.15021914,8.42014662 C9.01564058,8.73400541 10.4136221,8.73587093 11.2841874,8.42014662 L14.6069973,7.21507702 C15.0431425,7.05690205 15.2678608,7.28395436 15.110307,7.71838671 L13.9052374,11.0411966 C13.5913786,11.906618 13.5895131,13.3045995 13.9052374,14.1751649 L15.110307,17.4979748 C15.268482,17.93412 15.0414296,18.1588382 14.6069973,18.0012844 L11.2841874,16.7962148 C10.418766,16.4823561 9.0207845,16.4804905 8.15021914,16.7962148 L4.82740926,18.0012844 C4.39126402,18.1594594 4.1665458,17.9324071 4.32409957,17.4979748 L5.52916917,14.1751649 C5.84302795,13.3097434 5.84489348,11.911762 5.52916917,11.0411966 L4.32409957,7.71838671 Z" id="Shine" fill="#FFFFFF" transform="translate(9.717203, 12.608181) rotate(55.000000) translate(-9.717203, -12.608181) "></path>
                            </g>
                        </g>
                    </g>
                </g>
            </g>
        </g>
    </g>
</svg>