<?xml version="1.0" encoding="utf-8"?>
<!-- Generator: Adobe Illustrator 23.0.1, SVG Export Plug-In . SVG Version: 6.00 Build 0)  -->
<svg version="1.1" id="Layer_1" xmlns="http://www.w3.org/2000/svg" xmlns:xlink="http://www.w3.org/1999/xlink" x="0px" y="0px"
	 viewBox="0 0 256.5 190" style="enable-background:new 0 0 256.5 190;" xml:space="preserve">
<style type="text/css">
	.st0{fill:#FFD100;}
	.st1{clip-path:url(#SVGID_2_);}
	.st2{fill:#FFC800;}
	.st3{fill:#FED02F;}
	.st4{fill:#FFB400;}
	.st5{fill:url(#SVGID_3_);}
</style>
<title>1Artboard 76</title>
<g id="Layer_3">
	<path class="st0" d="M7.1,0h242.3c3.9,0,7.1,3.2,7.1,7.1v175.8c0,3.9-3.2,7.1-7.1,7.1H7.1c-3.9,0-7.1-3.2-7.1-7.1V7.1
		C0,3.2,3.2,0,7.1,0z"/>
	<g>
		<defs>
			<path id="SVGID_1_" d="M7.1,0h242.3c3.9,0,7.1,3.2,7.1,7.1v175.8c0,3.9-3.2,7.1-7.1,7.1H7.1c-3.9,0-7.1-3.2-7.1-7.1V7.1
				C0,3.2,3.2,0,7.1,0z"/>
		</defs>
		<clipPath id="SVGID_2_">
			<use xlink:href="#SVGID_1_"  style="overflow:visible;"/>
		</clipPath>
		<g class="st1">
			<circle class="st2" cx="256.5" cy="0" r="147.8"/>
			<circle class="st3" cx="256.5" cy="0" r="91.5"/>
			<circle class="st2" cx="256.5" cy="0" r="49.2"/>
		</g>
	</g>
	<path class="st4" d="M202.4,190c0,0-36.5-146.6-202.4-146.6v9.1c0,0,127,5.9,159.2,137.5H202.4z"/>
	
		<linearGradient id="SVGID_3_" gradientUnits="userSpaceOnUse" x1="199.3252" y1="152.0761" x2="36.7852" y2="25.8461" gradientTransform="matrix(1 0 0 -1 0 192)">
		<stop  offset="0" style="stop-color:#FFFBD4;stop-opacity:0.8"/>
		<stop  offset="1" style="stop-color:#FFFFFF;stop-opacity:0"/>
	</linearGradient>
	<path class="st5" d="M173.4,8.1c0,0-163.4,66.4-115.8,181.9h30.7c0,0-33.3-69.2,123.3-104.5L173.4,8.1z"/>
</g>
</svg>
