<?xml version="1.0" encoding="utf-8"?>
<!-- Generator: Adobe Illustrator 23.0.1, SVG Export Plug-In . SVG Version: 6.00 Build 0)  -->
<svg version="1.1" id="Layer_1" xmlns="http://www.w3.org/2000/svg" xmlns:xlink="http://www.w3.org/1999/xlink" x="0px" y="0px"
	 viewBox="0 0 107.4 115.5" style="enable-background:new 0 0 107.4 115.5;" xml:space="preserve">
<style type="text/css">
	.st0{fill:#FFF9E8;}
	.st1{fill:#FFFFFF;}
	.st2{fill:#FED02F;}
</style>
<title>1Artboard 78</title>
<g id="Layer_3">
	<path class="st0" d="M53.7,0L76,6.2l31.4,84.4l-13.8,18.5C65.9,77,52.6,40.6,53.7,0z"/>
	<polygon class="st1" points="0,35.5 34.4,115.5 93.6,109.2 53.7,0 	"/>
	<polygon class="st2" points="64.6,97.7 60,95.6 62.1,91.1 60,90.1 58,94.7 53.4,92.6 52.5,94.7 57,96.7 55,101.3 57,102.2 
		59.1,97.7 63.6,99.7 	"/>
	<path class="st2" d="M22.4,34.8l5.2,0.5c-0.5,1.5-0.3,3.2,0.4,4.6c1,2.7,4,4,6.6,3c0.1,0,0.2-0.1,0.3-0.1l0.2-0.1
		c-2.1-0.6-3.8-2.1-4.6-4.1c-1.6-3.8-0.7-8.4,3.8-10.3c4.3-1.9,8.9,0.3,11,5.2c2.9,6.7-0.7,11.6-6.8,14.2
		c-6.7,2.9-12.6,0.6-15.4-5.7C22,39.8,21.8,37.2,22.4,34.8z M38.7,41.2c1.9-0.9,2.8-3.1,2-5c0-0.1-0.1-0.1-0.1-0.2
		c-0.9-2-2.6-2.7-3.8-2.2c-1.8,0.8-1.7,2.9-1,4.5C36.3,39.6,37.3,40.7,38.7,41.2z"/>
	<path class="st2" d="M39.2,49.5c5.6-2.4,12.1-1.8,14.8,4.4s-1.4,11.3-7,13.7s-12.1,1.8-14.8-4.3S33.6,51.9,39.2,49.5z M44.6,62.1
		c3.7-1.6,5.6-3.6,4.5-6.2s-3.9-2.5-7.6-0.9s-5.7,3.6-4.6,6.2S40.8,63.7,44.6,62.1z"/>
	<path class="st2" d="M47.6,69.2c5.6-2.4,12.1-1.8,14.8,4.4s-1.4,11.3-7,13.7s-12.1,1.8-14.8-4.3S42.1,71.6,47.6,69.2z M53,81.8
		c3.7-1.6,5.6-3.6,4.5-6.1s-3.8-2.5-7.5-0.9s-5.7,3.6-4.6,6.2S49.3,83.4,53,81.8z"/>
</g>
</svg>
