<?xml version="1.0" encoding="UTF-8"?>
<svg width="72px" height="72px" viewBox="0 0 72 72" version="1.1" xmlns="http://www.w3.org/2000/svg" xmlns:xlink="http://www.w3.org/1999/xlink">
    <!-- Generator: Sketch 51.2 (57519) - http://www.bohemiancoding.com/sketch -->
    <title>BOMB</title>
    <desc>Created with Sketch.</desc>
    <defs>
        <circle id="path-1" cx="36" cy="36" r="36"></circle>
        <filter x="-7.0%" y="-6.5%" width="114.0%" height="113.0%" filterUnits="objectBoundingBox" id="filter-3">
            <feGaussianBlur stdDeviation="1" in="SourceGraphic"></feGaussianBlur>
        </filter>
    </defs>
    <g id="Symbols" stroke="none" stroke-width="1" fill="none" fill-rule="evenodd">
        <g id="Games-/-Game-Thumbnail-/-Mines" transform="translate(-24.000000, 14.000000)">
            <g id="BOMB" transform="translate(24.000000, -16.000000)">
                <g id="Base" transform="translate(0.000000, 2.000000)">
                    <mask id="mask-2" fill="white">
                        <use xlink:href="#path-1"></use>
                    </mask>
                    <use id="Oval-5" fill="#FF2247" xlink:href="#path-1"></use>
                    <circle id="Oval-5" fill="#D13456" mask="url(#mask-2)" cx="63" cy="60" r="36"></circle>
                </g>
                <g id="Top" transform="translate(46.000000, 0.000000)">
                    <path d="M8.27272706,4.72727273 L1.18181818,9.45454545 C1.18181818,9.45454545 -1.18181797,15.3636364 4.72727273,21.2727273 C10.6363634,27.1818182 16.5454545,24.8181818 16.5454545,24.8181818 L21.2727273,18.9090909 L8.27272706,4.72727273 Z" id="Path-7" fill="#D13456"></path>
                    <path d="M14.1818182,21.2727273 C17.445319,21.2727273 20.0909091,17.0397831 20.0909091,11.8181818 C20.0909091,6.59658055 17.445319,2.36363636 14.1818182,2.36363636 C10.9183174,2.36363636 8.27272727,6.59658055 8.27272727,11.8181818 C8.27272727,17.0397831 10.9183174,21.2727273 14.1818182,21.2727273 Z" id="Oval-4" fill="#FA3E5E" transform="translate(14.181818, 11.818182) rotate(-44.000000) translate(-14.181818, -11.818182) "></path>
                </g>
                <path d="M60.2910802,14.1553656 C60.5765072,14.1725025 60.8988142,14.203762 61.2477261,14.2526417 C62.2384,14.3914272 63.224681,14.6401334 64.1201902,15.0164944 C66.3839619,15.9679034 67.550321,17.4384818 67.550321,19.7997898 C67.550321,20.4897071 65.6021109,21.6629514 60.6950021,23.231621 C60.5329386,23.2834283 57.3527931,24.2802032 56.3923691,24.5954162 C51.2969754,26.2677339 48.0510833,27.8131795 45.6097996,30.1479167 C42.2006718,33.4082577 41.1039199,37.8640619 42.7589561,43.2837272 C43.1679071,44.622899 44.438735,45.3253547 45.5974296,44.8527058 C46.7561241,44.3800569 47.3639114,42.911286 46.9549603,41.5721142 C45.1254982,35.5812646 48.2170124,32.6246753 57.6078887,29.5425722 C58.5379387,29.237328 61.6965692,28.2472966 61.8812066,28.1882731 C64.9358692,27.2117803 66.7844729,26.4903804 68.3136892,25.5694611 C70.6219411,24.1793936 72,22.3404987 72,19.7997898 C72,14.9612376 69.495374,11.8033346 65.6408371,10.1833652 C64.3949384,9.65974384 63.0868539,9.3298899 61.7831621,9.1472531 C60.9990575,9.03740633 60.376028,9 59.9858667,9 C58.7571218,9.00000004 57.7610272,10.1512454 57.7610273,11.5713786 C57.7610273,12.9915117 58.7571219,14.1427571 59.9858668,14.142757 C60.0250339,14.142757 60.130112,14.1457012 60.2910802,14.1553656 Z" id="Path-6" fill="#2B2F3B" fill-rule="nonzero"></path>
                <g id="light" transform="translate(6.000000, 22.000000)">
                    <polygon id="Path-10" fill="#FFD527" points="39.6 20.4074074 39.4172931 20.1467556 28.8 5 37.2 21.5925926 25.2 18.037037 32.4 22.7777778 12 28.7037037 34.8 25.1481481 31.2 37 38.4 28.7037037 43.2 33.4444444 43.2 27.5185185 60 31.0740741 44.4 23.962963 52.8 18.037037 43.2 21.5925926 43.2 5"></polygon>
                    <polygon id="Path-10" fill="#FFD527" points="39.6 20.4074074 39.4172931 20.1467556 28.8 5 37.2 21.5925926 25.2 18.037037 32.4 22.7777778 12 28.7037037 34.8 25.1481481 31.2 37 38.4 28.7037037 43.2 33.4444444 43.2 27.5185185 60 31.0740741 44.4 23.962963 52.8 18.037037 43.2 21.5925926 43.2 5"></polygon>
                    <polygon id="Path-9" fill="#FFFFFF" points="28.6373176 30.5760705 24.0266425 33.3120907 24.0266425 33.9960957 26.0026461 33.9960957 29.2959855 31.2600756 36.5413321 29.2080605 37.8586679 33.9960957 40.4933394 27.8400504 49.0560217 32.6280856 43.1280109 25.1040302 50.3733575 23.0520151 43.1280109 22.3680101 46.4213502 16.8959698 40.4933394 19.6319899 40.4933394 17.5799748 39.1760036 18.2639798 35.2239964 8.00390429 36.5413321 18.2639798 31.2719891 17.5799748 33.2479928 20.315995 27.3199819 22.3680101 33.2479928 25.1040302"></polygon>
                    <path d="M27,12 L19,3 L20,0 L27,12 Z M29,34 L22,46 L21,43 L29,34 Z M54,24 L62,22 L62,24 L54,24 Z" id="Combined-Shape" fill="#FFD527" filter="url(#filter-3)"></path>
                    <path d="M27,12 L19,3 L20,0 L27,12 Z M29,34 L22,46 L21,43 L29,34 Z M54,24 L62,22 L62,24 L54,24 Z" id="Combined-Shape" fill="#FFD527"></path>
                    <g id="particles" transform="translate(27.422329, 29.051254) scale(-1, 1) rotate(144.000000) translate(-27.422329, -29.051254) translate(9.422329, 7.551254)" fill="#FFFFFF">
                        <polygon id="Path-2" points="21.5457129 31.0929059 23.6415993 34.0078658 22.8032447 34.9795192 21.1265356 34.0078658"></polygon>
                        <polygon id="Path-2" points="11.0662805 4.53438211 13.5813443 8.42099535 12.5753188 9.7165331 10.5632678 8.42099535"></polygon>
                        <polygon id="Path-2" points="1.67670917 -2.59348099e-13 2.51506376 0.97165331 2.17972192 1.29553775 1.50903825 0.97165331"></polygon>
                        <polygon id="Path-2" points="16.264079 16.1942218 17.1024336 17.1658751 16.7670917 17.4897596 16.0964081 17.1658751"></polygon>
                        <polygon id="Path-2" points="29.3424105 22.0241417 30.1807651 22.995795 29.8454233 23.3196794 29.1747396 22.995795"></polygon>
                        <polygon id="Path-2" points="34.372538 41.4572079 35.2108926 42.4288612 34.8755508 42.7527456 34.2048671 42.4288612"></polygon>
                        <polygon id="Path-2" points="10.2279259 33.0362125 11.0662805 34.0078658 10.7309387 34.3317503 10.060255 34.0078658"></polygon>
                        <polygon id="Path-4" points="23.1385866 23.9674483 26.1566631 23.3196794 26.1566631 25.2629861 23.6415993 25.9107549"></polygon>
                        <polygon id="Path-5" points="6.03615302 32.0645592 6.87450761 30.445137 8.13203948 30.445137 8.55121678 32.0645592 6.87450761 33.6839814"></polygon>
                        <polygon id="Path-2" transform="translate(30.683778, 18.137528) rotate(-50.000000) translate(-30.683778, -18.137528) " points="31.3544615 20.0808351 29.6777523 17.1658751 30.348436 16.1942218 31.6898034 17.1658751"></polygon>
                        <polygon id="Path-4" transform="translate(20.120510, 16.518106) rotate(-50.000000) translate(-20.120510, -16.518106) " points="21.1265356 17.0039329 19.1144846 17.4897596 19.1144846 16.0322796 20.7911937 15.546453"></polygon>
                        <polygon id="Path-4" transform="translate(21.126536, 22.024142) rotate(-50.000000) translate(-21.126536, -22.024142) " points="21.6295483 22.3480261 20.6235228 22.6719106 20.6235228 21.7002573 21.4618774 21.3763728"></polygon>
                        <polygon id="Path-4" transform="translate(11.066281, 28.501830) rotate(-50.000000) translate(-11.066281, -28.501830) " points="11.5692933 28.8257149 10.5632678 29.1495993 10.5632678 28.177946 11.4016224 27.8540615"></polygon>
                        <polygon id="Path-4" transform="translate(1.006026, 41.457208) rotate(-50.000000) translate(-1.006026, -41.457208) " points="1.50903825 41.7810923 0.503012752 42.1049768 0.503012752 41.1333234 1.34136734 40.809439"></polygon>
                        <polygon id="Path-4" transform="translate(11.066281, 15.546453) rotate(-50.000000) translate(-11.066281, -15.546453) " points="11.5692933 15.8703374 10.5632678 16.1942218 10.5632678 15.2225685 11.4016224 14.8986841"></polygon>
                        <polygon id="Path-4" transform="translate(31.186791, 9.068764) rotate(-50.000000) translate(-31.186791, -9.068764) " points="31.6898034 9.39264866 30.6837778 9.7165331 30.6837778 8.74487979 31.5221324 8.42099535"></polygon>
                        <polygon id="Path-4" transform="translate(20.623523, 37.570595) scale(1, -1) rotate(-50.000000) translate(-20.623523, -37.570595) " points="21.1265356 37.8944791 20.1205101 38.2183635 20.1205101 37.2467102 20.9588647 36.9228258"></polygon>
                        <polygon id="Path-5" transform="translate(13.581344, 18.137528) rotate(-50.000000) translate(-13.581344, -18.137528) " points="14.5873698 18.1375284 13.9166861 19.4330662 12.9106606 19.4330662 12.5753188 18.1375284 13.9166861 16.8419907"></polygon>
                        <polygon id="Path-5" transform="translate(8.551217, 23.967448) rotate(-50.000000) translate(-8.551217, -23.967448) " points="9.55724228 23.9674483 8.88655861 25.2629861 7.88053311 25.2629861 7.54519127 23.9674483 8.88655861 22.6719106"></polygon>
                    </g>
                </g>
            </g>
        </g>
    </g>
</svg>