<?xml version="1.0" encoding="utf-8"?>
<!-- Generator: Adobe Illustrator 22.0.0, SVG Export Plug-In . SVG Version: 6.00 Build 0)  -->
<svg version="1.1" id="Layer_1" xmlns="http://www.w3.org/2000/svg" xmlns:xlink="http://www.w3.org/1999/xlink" x="0px" y="0px"
	 viewBox="0 0 256.5 190" style="enable-background:new 0 0 256.5 190;" xml:space="preserve">
<style type="text/css">
	.st0{fill:#1EC723;}
	.st1{fill:#162C39;}
	.st2{fill:#051D27;}
	.st3{fill:#1AAD1E;}
	.st4{fill:#409E40;}
	.st5{fill:#FF003D;}
	.st6{fill:#2B4553;}
	.st7{fill:#112C39;}
	.st8{fill:#E10032;}
	.st9{fill:#307530;}
	.st10{fill:url(#SVGID_1_);}
	.st11{fill:#FFFFFF;}
	.st12{fill:#FFC000;}
	.st13{clip-path:url(#SVGID_3_);}
	.st14{fill:#1FCC24;}
	.st15{fill:#B23931;}
</style>
<title>2Artboard 66 copy0</title>
<g id="Layer_3">
	<path class="st0" d="M7.1,0h242.3c3.9,0,7.1,3.2,7.1,7.1v175.8c0,3.9-3.2,7.1-7.1,7.1H7.1c-3.9,0-7.1-3.2-7.1-7.1V7.1
		C0,3.2,3.2,0,7.1,0z"/>
	<polygon class="st1" points="93.9,186.6 90.7,182.3 96,183 99.2,187.3 	"/>
	<polygon class="st1" points="51.5,28.6 55.8,25.4 55.1,30.7 50.8,33.9 	"/>
	<path class="st2" d="M98.4,65.3L0,15l0,0v168c0.1,3.9,3.2,7,7.1,7h102.2L98.4,65.3z"/>
	<path class="st2" d="M0,182.9c0,3.9,3.2,7.1,7.1,7.1h102.2L0,15V182.9z"/>
	<path class="st3" d="M72.9,25.2c-22-12.7-47.6-18-72.9-15V15l109.3,175h5.6c0.5-0.9,1-1.7,1.6-2.6C149.2,130.6,129.7,58,72.9,25.2z
		"/>
	<path class="st2" d="M70.6,29.4C49.2,17,24.5,12,0,15v168c0.1,3.9,3.2,7,7.1,7h102.2c1.1-1.6,2.1-3.3,3.1-5
		C143.8,130.5,125.1,60.8,70.6,29.4z"/>
	<path class="st4" d="M50.9,49.3c7.4-1.6,12.1-5.3,7.7-16.4c-5.3-2.5-10.9-4.6-16.6-6.2c-7.4,5.9-9.3,11.8-4.8,17.5
		C39,51,43.5,52.7,50.9,49.3z"/>
	<path class="st5" d="M102.4,183.9c-3.5-8.7-8-14-15.3-9.7c-7.6,1.3-11.4,4.8-8.8,11.7c0.8,3,2.3,4.3,4.4,4h15.6
		C99.8,188,101.1,186,102.4,183.9z"/>
	<path class="st6" d="M78.3,185.9c-4.4,0.8-5.2,2.2-3.9,4h8.3L78.3,185.9z"/>
	<path class="st6" d="M100.1,118.1c6.6,5,12.6,4,18-2.1c-0.7-5.9-1.8-11.7-3.5-17.4c-6.4-3.9-12.1-1.8-17.4,5.1
		C93.7,109,93.2,114,100.1,118.1z"/>
	<path class="st5" d="M100.5,132.8c4.8,6.6,10.8,6.9,18.1,1c0.3-5.9,0.2-11.9-0.5-17.7l-18,2.1C93.2,123.9,93.2,128.8,100.5,132.8z"
		/>
	<path class="st5" d="M97.2,103.7l17.4-5.1c-1.6-5.7-3.8-11.3-6.4-16.6c-8.8-3.5-13.9-0.3-16.3,8C88.2,96.5,89.5,101.2,97.2,103.7z"
		/>
	<path class="st6" d="M91.9,90l16.3-8c-2.6-5.3-5.6-10.5-9.1-15.3c-7.5-0.6-12.4,3.1-14.7,10.6C82.8,83.9,83.1,89.5,91.9,90z"/>
	<path class="st5" d="M93.9,161.2c1.5,9.5,8.1,10,16.7,7c2.3-5.5,4.1-11.1,5.4-16.9c-6.2-6.7-12.2-8.5-17.7-4
		C93.7,150.1,91.5,154.3,93.9,161.2z"/>
	<path class="st6" d="M85.6,165.7c-0.6,1,2.2,7.5,1.5,8.5l15.3,9.7c0.8-1.2,1.5-2.5,2.3-3.7c2.2-3.9,4.2-7.9,5.9-12l-16.7-7
		C92.5,164.6,87.4,162.5,85.6,165.7z"/>
	<path class="st5" d="M84.4,77.3l14.7-10.6c-3.5-4.8-7.3-9.4-11.5-13.5c-8.7,0.2-13.3,4.1-12.7,12.9C71.8,74.9,76.3,77.5,84.4,77.3z
		"/>
	<path class="st6" d="M98.4,147.3l17.7,4c1.3-5.8,2.2-11.7,2.5-17.6l-18.1-1C92.6,137.6,92.7,142.5,98.4,147.3z"/>
	<path class="st6" d="M6.6,23.1c-2.2,0.2-4.4,0.4-6.6,0.7v18.3c3.3,4.3,5.8,3.1,7.9-0.9C13.8,37,12.7,30.8,6.6,23.1z"/>
	<path class="st5" d="M22.6,41.5c7.3-4.4,7.5-10.5,1.8-18c-5.9-0.6-11.9-0.7-17.8-0.3l1.3,18C13,46.4,17.8,45.5,22.6,41.5z"/>
	<path class="st6" d="M74.9,66.1l12.7-12.9c-4.2-4.2-8.8-8-13.7-11.4c-7.4,2.5-12,6.8-10.3,14.9C63.1,63.4,66.5,67,74.9,66.1z"/>
	<path class="st5" d="M54.4,55.9c2.2,1.3,7.2-0.6,9.2,0.8l10.3-14.9c-2.5-1.7-5.1-3.4-7.7-4.9c-2.5-1.5-5.1-2.8-7.7-4l-7.7,16.4
		C53,50.3,52.3,54.7,54.4,55.9z"/>
	<path class="st6" d="M37.1,44.2l4.8-17.5c-5.7-1.6-11.6-2.7-17.5-3.3l-1.8,18C25.1,50.2,30.4,49.4,37.1,44.2z"/>
	<path class="st7" d="M75.1,163.1c-0.5,0.9-1,1.7-1.5,2.5c1,7,6,9.4,13.5,8.6c0.6-1,1.3-2,1.9-3.1c1.8-3.2,3.5-6.5,4.9-9.9
		c-3-7.3-7.5-10.3-14.8-6.2C78,157.8,76.6,160.5,75.1,163.1z"/>
	<path class="st8" d="M57.7,183.4c-3.1,2.5-6.5,4.7-10,6.6h15.2C64.6,185.8,63.4,183.2,57.7,183.4z"/>
	<path class="st8" d="M73.6,165.7c-2.1,3.4-4.5,6.6-7.2,9.5c0.2,6.5,4.5,9.9,11.9,10.8c3.3-3.6,6.2-7.6,8.8-11.7L73.6,165.7z"/>
	<path class="st7" d="M78.3,185.9l-11.9-10.8c-2.7,3-5.6,5.7-8.7,8.2l5.2,6.6h11.6C75.7,188.6,77,187.3,78.3,185.9z"/>
	<path class="st7" d="M77.5,97c6.1,1.9,11-0.1,14.4-7c-2.1-4.4-4.6-8.6-7.5-12.6c-7.3,0-11.8,3-13,9.4C73.8,90,75.8,93.4,77.5,97z"
		/>
	<path class="st8" d="M81.8,108.2c5.8,3.6,10.9,2,15.4-4.5C95.8,99,94.1,94.4,92,90l-14.4,7C79.3,100.6,80.7,104.3,81.8,108.2z"/>
	<path class="st7" d="M84.1,119.9c5.2,4.4,10.5,3.7,15.9-1.8c-0.5-4.9-1.5-9.7-2.9-14.4l-15.4,4.5C82.9,112,83.7,116,84.1,119.9z"/>
	<path class="st7" d="M63.7,77.6c5.5-1,9.2-4.9,11.2-11.4c-3.5-3.5-7.3-6.6-11.3-9.4c-7.4,2.7-10.9,6.9-9.2,13.2
		C57.7,72.2,60.8,74.8,63.7,77.6z"/>
	<path class="st8" d="M71.4,86.7l13-9.4c-2.9-4-6-7.7-9.5-11.2L63.7,77.6C66.5,80.4,69.1,83.4,71.4,86.7z"/>
	<path class="st8" d="M79.1,155.1l14.8,6.2c1.9-4.5,3.4-9.2,4.5-14c-4-6.1-9.2-7-15.6-3.5C81.9,147.6,80.7,151.4,79.1,155.1z"/>
	<path class="st7" d="M82.8,143.7l15.6,3.6c1.1-4.8,1.8-9.6,2.1-14.5c-5.8-4.8-11.1-4.8-16-0.9C84.2,135.9,83.7,139.8,82.8,143.7z"
		/>
	<path class="st8" d="M84.5,131.9l16,0.9c0.3-4.9,0.1-9.8-0.4-14.7l-15.9,1.8C84.6,123.9,84.7,127.9,84.5,131.9z"/>
	<path class="st7" d="M7.9,41.2c-2.7,0.2-5.3,0.5-7.9,0.9v16.3c3-0.6,6-1,9.1-1.2C12.3,51.9,11.9,46.5,7.9,41.2z"/>
	<path class="st8" d="M49.2,66.5c1.8,1.1,3.6,2.2,5.3,3.4l9.1-13.2c-2.1-1.5-4.2-2.8-6.4-4.1c-2.1-1.2-4.2-2.3-6.3-3.3
		c-6.1,4.4-9,9.2-6.8,14.5C45.8,64.7,47.5,65.6,49.2,66.5z"/>
	<path class="st9" d="M44.1,63.9l6.8-14.5c-4.4-2.1-9-3.8-13.7-5.1c-6.3,4.2-7.8,9.4-4.2,15.5C36.7,60.7,40.5,62.1,44.1,63.9z"/>
	<path class="st7" d="M32.9,59.7l4.2-15.5c-4.7-1.3-9.6-2.2-14.5-2.7c-5.4,4.7-5.7,10.1-1.6,16C25.1,57.9,29,58.6,32.9,59.7z"/>
	<path class="st8" d="M21.1,57.4l1.6-16c-4.9-0.5-9.8-0.6-14.8-0.2l1.2,16C13.1,56.9,17.1,57,21.1,57.4z"/>
	
		<linearGradient id="SVGID_1_" gradientUnits="userSpaceOnUse" x1="94.5998" y1="-209.9824" x2="68.0998" y2="-174.3124" gradientTransform="matrix(1 0 0 -1 0 -116)">
		<stop  offset="0" style="stop-color:#FFFBFF;stop-opacity:0.5"/>
		<stop  offset="1" style="stop-color:#FEAD2F;stop-opacity:0"/>
	</linearGradient>
	<path class="st10" d="M89.2,98.4c-5.3-13.7-14.1-25.7-25.6-34.8l6.8-8.6c21.7,17.2,29,39.2,29.3,40.1L89.2,98.4z"/>
	<circle class="st11" cx="94.4" cy="96.7" r="6"/>
	<circle class="st12" cx="13.8" cy="128.2" r="10.7"/>
	<circle class="st2" cx="13.8" cy="128.2" r="5.1"/>
	<polygon class="st12" points="20,130.2 18.1,123.1 51.3,116.7 52,119.1 	"/>
	<circle class="st12" cx="51.7" cy="117.9" r="2.8"/>
	<polygon class="st12" points="15.8,122 8.7,123.9 2.3,90.7 4.7,90.1 	"/>
	<circle class="st12" cx="3.5" cy="90.4" r="2.8"/>
	<polygon class="st12" points="7.6,126.2 0,128.9 0,135.2 9.5,133.3 	"/>
	<polygon class="st12" points="11.8,134.4 19,132.5 25.3,165.7 22.9,166.4 	"/>
	<circle class="st12" cx="24.1" cy="166.1" r="2.8"/>
	<g>
		<g>
			<g>
				<defs>
					<path id="SVGID_2_" d="M7.1,0h242.3c3.9,0,7.1,3.2,7.1,7.1v175.8c0,3.9-3.2,7.1-7.1,7.1H7.1c-3.9,0-7.1-3.2-7.1-7.1V7.1
						C0,3.2,3.2,0,7.1,0z"/>
				</defs>
				<clipPath id="SVGID_3_">
					<use xlink:href="#SVGID_2_"  style="overflow:visible;"/>
				</clipPath>
				<g class="st13">
					<path class="st3" d="M259.7,156.9v-4.7h-81.2c-0.3,0-0.5-0.2-0.5-0.5V126c0-2.5-2-4.5-4.5-4.5l0,0h-7l-16.4-69.6l16.5-69.6h103
						v-1.2c0-3.9-3.2-7.1-7.1-7.1l0,0H160.6c-1,0.6-1.7,1.6-2,2.8l-17.5,74.1c-0.2,0.7-0.2,1.4,0,2.1l17.5,74.1
						c0.5,2,2.3,3.5,4.4,3.5h6v21.3c0,5.2,4.3,9.5,9.5,9.5h79.7C259.2,160,259.7,158.5,259.7,156.9z"/>
					<polygon class="st14" points="173.5,126 163,126 145.4,51.9 163,-22.2 173.5,-22.2 					"/>
					<path class="st3" d="M174,126.5h-11.4l-17.7-74.6l17.7-74.6H174V126.5z M163.4,125.5h9.6V-21.7h-9.6L146,51.9L163.4,125.5z"/>
					<rect x="169" class="st3" width="87.5" height="130.2"/>
					<path class="st14" d="M173.5,125.8h91.9l0,0v31l0,0h-86.9c-2.8,0-5-2.2-5-5V125.8z"/>
					<path class="st3" d="M265.9,157.3h-87.4c-3,0-5.5-2.5-5.5-5.5v-26.5h92.9V157.3z M174,126.3v25.5c0,2.5,2,4.5,4.5,4.5h86.4v-30
						H174z"/>
					<path class="st7" d="M208.9-17.8h22.3c1.8,0,3.3,1.5,3.3,3.3v39.2c0,1.8-1.5,3.3-3.3,3.3h-22.3c-1.8,0-3.3-1.5-3.3-3.3v-39.2
						C205.6-16.3,207-17.8,208.9-17.8z"/>
					<path class="st15" d="M240-17.8h22.1c1.8,0,3.3,1.5,3.3,3.3v39.2c0,1.8-1.5,3.3-3.3,3.3H240c-1.8,0-3.3-1.5-3.3-3.3v-39.2
						C236.6-16.3,238.1-17.8,240-17.8z"/>
					<path class="st15" d="M177.5-17.8h22.1c1.8,0,3.3,1.5,3.3,3.3v39.2c0,1.8-1.5,3.3-3.3,3.3h-22.1c-1.8,0-3.3-1.5-3.3-3.3v-39.2
						C174.1-16.3,175.6-17.8,177.5-17.8z"/>
					<path class="st11" d="M185.2,7.3l1-1.3c0.7,0.7,1.6,1,2.6,1c1.1,0,1.8-0.5,1.8-1.2s-0.6-1.1-1.9-1.1h-1.1V3h1.1
						c1,0,1.7-0.3,1.7-1s-0.8-1-1.7-1s-1.7,0.4-2.4,1l-1-1.2c0.9-1,2.2-1.5,3.5-1.5c2.2,0,3.5,1,3.5,2.5c-0.1,1.1-0.9,2-2,2.1
						c1.2,0.1,2.1,1,2.2,2.2c0,1.6-1.4,2.7-3.6,2.7C187.5,8.9,186.1,8.3,185.2,7.3z"/>
					<path class="st7" d="M208.9,79.6h22.3c1.8,0,3.3,1.5,3.3,3.3v39.2c0,1.8-1.5,3.3-3.3,3.3h-22.3c-1.8,0-3.3-1.5-3.3-3.3V83
						C205.6,81.1,207,79.6,208.9,79.6z"/>
					<path class="st15" d="M240,79.6h22.1c1.8,0,3.3,1.5,3.3,3.3v39.2c0,1.8-1.5,3.3-3.3,3.3H240c-1.8,0-3.3-1.5-3.3-3.3V83
						C236.6,81.1,238.1,79.6,240,79.6z"/>
					<path class="st15" d="M177.5,79.6h22.1c1.8,0,3.3,1.5,3.3,3.3v39.2c0,1.8-1.5,3.3-3.3,3.3h-22.1c-1.8,0-3.3-1.5-3.3-3.3V83
						C174.1,81.1,175.6,79.6,177.5,79.6z"/>
					<path class="st11" d="M216.3,4c0-2.8,1.6-4.8,4.3-4.8c1,0,2,0.3,2.7,1l-0.9,1.5c-0.5-0.5-1.2-0.7-1.8-0.7
						c-1.3,0.1-2.4,1.2-2.3,2.5v0.1c0,0.1,0,0.1,0,0.2c0.6-0.7,1.4-1.2,2.4-1.2c1.6-0.1,3,1.1,3.1,2.7c0,0.1,0,0.2,0,0.3
						c0,1.8-1.5,3.2-3.3,3.2c-0.1,0-0.2,0-0.2,0C217.4,8.8,216.3,6.6,216.3,4z M221.8,5.7c0-1-0.8-1.4-1.7-1.4
						c-0.7,0-1.4,0.3-1.8,0.9c0,1,0.8,1.9,1.8,1.9l0,0C221,7.1,221.7,6.5,221.8,5.7z"/>
					<path class="st11" d="M247.7,7.8l0.9-1.5c0.5,0.5,1.2,0.7,1.9,0.7c1.3,0,2.4-1.1,2.3-2.4c0-0.1,0-0.1,0-0.2V4.2
						c-0.6,0.7-1.5,1.2-2.4,1.2c-1.7,0.1-3.1-1.2-3.2-2.8c0-0.1,0-0.1,0-0.2c0-1.8,1.5-3.2,3.3-3.2c0.1,0,0.1,0,0.2,0
						c2.8,0,4,2.2,4,4.8c0,2.8-1.6,4.8-4.3,4.8C249.5,8.8,248.5,8.5,247.7,7.8z M252.7,2.8c0-1-0.8-1.9-1.9-1.9l0,0
						c-0.8-0.1-1.6,0.5-1.6,1.4l0,0c0,1,0.8,1.4,1.7,1.4C251.6,3.7,252.3,3.4,252.7,2.8L252.7,2.8z"/>
					<path class="st15" d="M208.9,30.9h22.3c1.8,0,3.3,1.5,3.3,3.3v39.2c0,1.8-1.5,3.3-3.3,3.3h-22.3c-1.8,0-3.3-1.5-3.3-3.3V34.2
						C205.6,32.4,207,30.9,208.9,30.9z"/>
					<path class="st7" d="M240,30.9h22.1c1.8,0,3.3,1.5,3.3,3.3v39.2c0,1.8-1.5,3.3-3.3,3.3H240c-1.8,0-3.3-1.5-3.3-3.3V34.2
						C236.6,32.4,238.1,30.9,240,30.9z"/>
					<path class="st7" d="M177.5,30.9h22.1c1.8,0,3.3,1.5,3.3,3.3v39.2c0,1.8-1.5,3.3-3.3,3.3h-22.1c-1.8,0-3.3-1.5-3.3-3.3V34.2
						C174.1,32.4,175.6,30.9,177.5,30.9z"/>
					<path class="st11" d="M185.5,57.6v-1.5c3.8-2.8,4.9-3.8,4.9-4.9c0-0.8-0.7-1.2-1.5-1.2c-0.9,0-1.8,0.4-2.5,1l-1.1-1.3
						c0.9-1,2.2-1.5,3.6-1.5c2,0,3.5,1.1,3.5,3c0,1.6-1.3,3-3.7,4.7h3.8v1.7H185.5z"/>
					<path class="st11" d="M155.6,51.7c0-2.4,1.2-4.8,3.8-4.8s3.8,2.4,3.8,4.8s-1.2,4.8-3.8,4.8S155.6,54.1,155.6,51.7z M161.3,51.7
						c0-1.7-0.5-3-1.8-3s-1.8,1.3-1.8,3s0.5,3,1.8,3S161.3,53.4,161.3,51.7z"/>
					<path class="st11" d="M216.5,56.4l1.1-1.4c0.6,0.6,1.5,1,2.4,1c1.1,0,1.7-0.6,1.7-1.4s-0.6-1.4-1.7-1.4c-0.7,0-1.5,0.2-2,0.8
						l-1.4-0.4v-5.3h6.4V50h-4.4v2.3c1.2-1.1,3.1-1,4.2,0.2c0.5,0.5,0.8,1.3,0.8,2c0,2-1.5,3.2-3.7,3.2
						C218.6,57.8,217.4,57.3,216.5,56.4z"/>
					<path class="st11" d="M247.3,55.2c0.1-1.1,0.9-2.1,2-2.4c-1-0.2-1.8-1.1-1.8-2.2c0-1.7,1.9-2.4,3.6-2.4s3.6,0.7,3.6,2.4
						c0,1.1-0.8,2-1.9,2.2c1.1,0.3,1.9,1.2,2,2.4c0,1.7-1.8,2.6-3.7,2.6S247.3,56.9,247.3,55.2z M252.7,55c0-0.8-1.1-1.2-1.7-1.2
						c-0.6,0.1-1.7,0.5-1.7,1.2s0.7,1.1,1.7,1.1S252.7,55.6,252.7,55L252.7,55z M252.6,51c0-0.7-0.6-1.1-1.6-1.1s-1.6,0.4-1.6,1.1
						s1,1,1.6,1.1C251.6,52,252.6,51.7,252.6,51L252.6,51z"/>
					<path class="st11" d="M187.2,106.6v-6.7l-1.5,1.6l-1.1-1.2l2.9-2.9h1.7v9.3h-2L187.2,106.6L187.2,106.6z"/>
					<path class="st11" d="M220.2,106.6v-1.9h-4.4v-1.6l3.7-5.8h2.7v5.7h1.2v1.7h-1.2v1.9L220.2,106.6z M220.2,99.1l-2.5,3.9h2.5
						V99.1z"/>
					<path class="st11" d="M221,145.7V139l-1.5,1.6l-1.1-1.2l2.9-2.9h1.7v9.3L221,145.7z"/>
					<path class="st11" d="M224.2,144.8l0.8-1.2c0.7,0.5,1.5,0.9,2.3,0.9s1.1-0.3,1.1-0.7c0-1.1-4-0.2-4-2.9c0-1.1,1-2.1,2.8-2.1
						c1,0,1.9,0.3,2.7,0.9l-0.7,1.2c-0.5-0.5-1.3-0.8-2-0.8c-0.6,0-1.1,0.3-1.1,0.7c0,1,4,0.2,4,2.9c0,1.2-1,2.1-2.9,2.1
						C226.1,145.9,225.1,145.5,224.2,144.8z"/>
					<path class="st11" d="M231.8,144v-3.5h-1.1V139h1.1v-1.8h1.8v1.8h1.4v1.5h-1.4v3c0,0.4,0.2,0.7,0.6,0.7c0.2,0,0.4-0.1,0.6-0.2
						l0.4,1.3c-0.4,0.3-1,0.5-1.5,0.4c-0.9,0.1-1.8-0.5-1.9-1.4C231.7,144.3,231.7,144.1,231.8,144z"/>
					<path class="st11" d="M241.6,145.7V139l-1.5,1.6l-1.1-1.2l2.9-2.9h1.7v9.3L241.6,145.7z"/>
					<path class="st11" d="M245.1,145.7v-1.6c3.8-2.8,4.9-3.8,4.9-4.9c0-0.8-0.7-1.2-1.5-1.2c-0.9,0-1.8,0.4-2.5,1.1l-1.1-1.3
						c0.9-1,2.2-1.5,3.6-1.5c2,0,3.5,1.1,3.5,2.9c0,1.6-1.3,3-3.7,4.7h3.8v1.7L245.1,145.7z"/>
					<path class="st11" d="M248.9,106.6l3.3-7.5h-4.7v-1.7h7v1.4l-3.4,7.9h-2.2L248.9,106.6L248.9,106.6z"/>
				</g>
			</g>
		</g>
	</g>
	<rect x="171.5" y="125.5" class="st3" width="85" height="4.7"/>
</g>
</svg>
