<svg xmlns="http://www.w3.org/2000/svg" viewBox="0 0 1280 720" width="1280" height="720">
	<style>
		tspan { white-space:pre }
		.shp0 { fill: #6048d4 } 
		.shp1 { opacity: 0.329;fill: #000000 } 
		.shp2 { opacity: 0.51;fill: #ffffff } 
	</style>
	<path id="Background" class="shp0" d="M-125 -86L1435 -86C1438.87 -86 1442 -82.87 1442 -79L1442 856C1442 859.87 1438.87 863 1435 863L-125 863C-128.87 863 -132 859.87 -132 856L-132 -79C-132 -82.87 -128.87 -86 -125 -86Z" />
	<path id="Shape 1" class="shp1" d="M88 62L205 62C208.87 62 212 65.13 212 69L212 131C212 134.87 208.87 138 205 138L88 138C84.13 138 81 134.87 81 131L81 69C81 65.13 84.13 62 88 62Z" />
	<path id="Shape 1 copy" class="shp1" d="M229 62L346 62C349.87 62 353 65.13 353 69L353 131C353 134.87 349.87 138 346 138L229 138C225.13 138 222 134.87 222 131L222 69C222 65.13 225.13 62 229 62Z" />
	<path id="Shape 1 copy 2" class="shp1" d="M370 62L487 62C490.87 62 494 65.13 494 69L494 131C494 134.87 490.87 138 487 138L370 138C366.13 138 363 134.87 363 131L363 69C363 65.13 366.13 62 370 62Z" />
	<path id="Shape 1 copy 3" class="shp1" d="M511 62L628 62C631.87 62 635 65.13 635 69L635 131C635 134.87 631.87 138 628 138L511 138C507.13 138 504 134.87 504 131L504 69C504 65.13 507.13 62 511 62Z" />
	<path id="Shape 1 copy 4" class="shp1" d="M652 62L769 62C772.87 62 776 65.13 776 69L776 131C776 134.87 772.87 138 769 138L652 138C648.13 138 645 134.87 645 131L645 69C645 65.13 648.13 62 652 62Z" />
	<path id="Shape 1 copy 5" class="shp1" d="M793 62L910 62C913.87 62 917 65.13 917 69L917 131C917 134.87 913.87 138 910 138L793 138C789.13 138 786 134.87 786 131L786 69C786 65.13 789.13 62 793 62Z" />
	<path id="Shape 1 copy 18" class="shp1" d="M370 582L487 582C490.87 582 494 585.13 494 589L494 651C494 654.87 490.87 658 487 658L370 658C366.13 658 363 654.87 363 651L363 589C363 585.13 366.13 582 370 582Z" />
	<path id="Shape 1 copy 30" class="shp1" d="M229 582L346 582C349.87 582 353 585.13 353 589L353 651C353 654.87 349.87 658 346 658L229 658C225.13 658 222 654.87 222 651L222 589C222 585.13 225.13 582 229 582Z" />
	<path id="Shape 1 copy 19" class="shp1" d="M511 582L628 582C631.87 582 635 585.13 635 589L635 651C635 654.87 631.87 658 628 658L511 658C507.13 658 504 654.87 504 651L504 589C504 585.13 507.13 582 511 582Z" />
	<path id="Shape 1 copy 20" class="shp1" d="M652 582L769 582C772.87 582 776 585.13 776 589L776 651C776 654.87 772.87 658 769 658L652 658C648.13 658 645 654.87 645 651L645 589C645 585.13 648.13 582 652 582Z" />
	<path id="Shape 1 copy 21" class="shp1" d="M793 582L910 582C913.87 582 917 585.13 917 589L917 651C917 654.87 913.87 658 910 658L793 658C789.13 658 786 654.87 786 651L786 589C786 585.13 789.13 582 793 582Z" />
	<path id="Shape 1 copy 22" class="shp1" d="M934 582L1051 582C1054.87 582 1058 585.13 1058 589L1058 651C1058 654.87 1054.87 658 1051 658L934 658C930.13 658 927 654.87 927 651L927 589C927 585.13 930.13 582 934 582Z" />
	<path id="Shape 1 copy 23" class="shp1" d="M1075 582L1192 582C1195.87 582 1199 585.13 1199 589L1199 651C1199 654.87 1195.87 658 1192 658L1075 658C1071.13 658 1068 654.87 1068 651L1068 589C1068 585.13 1071.13 582 1075 582Z" />
	<g id="Folder 19">
		<path id="Shape 1 copy 10" class="shp2" d="M88 324L205 324C208.87 324 212 327.13 212 331L212 393C212 396.87 208.87 400 205 400L88 400C84.13 400 81 396.87 81 393L81 331C81 327.13 84.13 324 88 324Z" />
		<path id="Shape 1 copy 11" class="shp2" d="M229 324L346 324C349.87 324 353 327.13 353 331L353 393C353 396.87 349.87 400 346 400L229 400C225.13 400 222 396.87 222 393L222 331C222 327.13 225.13 324 229 324Z" />
		<path id="Shape 1 copy 14" class="shp2" d="M652 324L769 324C772.87 324 776 327.13 776 331L776 393C776 396.87 772.87 400 769 400L652 400C648.13 400 645 396.87 645 393L645 331C645 327.13 648.13 324 652 324Z" />
		<path id="Shape 1 copy 15" class="shp2" d="M793 324L910 324C913.87 324 917 327.13 917 331L917 393C917 396.87 913.87 400 910 400L793 400C789.13 400 786 396.87 786 393L786 331C786 327.13 789.13 324 793 324Z" />
		<path id="Shape 1 copy 16" class="shp2" d="M934 324L1051 324C1054.87 324 1058 327.13 1058 331L1058 393C1058 396.87 1054.87 400 1051 400L934 400C930.13 400 927 396.87 927 393L927 331C927 327.13 930.13 324 934 324Z" />
		<path id="Shape 1 copy 17" class="shp2" d="M1075 324L1192 324C1195.87 324 1199 327.13 1199 331L1199 393C1199 396.87 1195.87 400 1192 400L1075 400C1071.13 400 1068 396.87 1068 393L1068 331C1068 327.13 1071.13 324 1075 324Z" />
	</g>
	<path id="Shape 1 copy 6" class="shp1" d="M88 177L205 177C208.87 177 212 180.13 212 184L212 246C212 249.87 208.87 253 205 253L88 253C84.13 253 81 249.87 81 246L81 184C81 180.13 84.13 177 88 177Z" />
	<path id="Shape 1 copy 7" class="shp1" d="M229 177L346 177C349.87 177 353 180.13 353 184L353 246C353 249.87 349.87 253 346 253L229 253C225.13 253 222 249.87 222 246L222 184C222 180.13 225.13 177 229 177Z" />
	<path id="Shape 1 copy 8" class="shp1" d="M370 177L487 177C490.87 177 494 180.13 494 184L494 246C494 249.87 490.87 253 487 253L370 253C366.13 253 363 249.87 363 246L363 184C363 180.13 366.13 177 370 177Z" />
	<path id="Shape 1 copy 9" class="shp1" d="M511 177L628 177C631.87 177 635 180.13 635 184L635 246C635 249.87 631.87 253 628 253L511 253C507.13 253 504 249.87 504 246L504 184C504 180.13 507.13 177 511 177Z" />
	<path id="Shape 1 copy 24" class="shp1" d="M651 470L768 470C771.87 470 775 473.13 775 477L775 539C775 542.87 771.87 546 768 546L651 546C647.13 546 644 542.87 644 539L644 477C644 473.13 647.13 470 651 470Z" />
	<path id="Shape 1 copy 28" class="shp1" d="M510 470L627 470C630.87 470 634 473.13 634 477L634 539C634 542.87 630.87 546 627 546L510 546C506.13 546 503 542.87 503 539L503 477C503 473.13 506.13 470 510 470Z" />
	<path id="Shape 1 copy 29" class="shp1" d="M369 470L486 470C489.87 470 493 473.13 493 477L493 539C493 542.87 489.87 546 486 546L369 546C365.13 546 362 542.87 362 539L362 477C362 473.13 365.13 470 369 470Z" />
	<path id="Shape 1 copy 25" class="shp1" d="M792 470L909 470C912.87 470 916 473.13 916 477L916 539C916 542.87 912.87 546 909 546L792 546C788.13 546 785 542.87 785 539L785 477C785 473.13 788.13 470 792 470Z" />
	<path id="Shape 1 copy 26" class="shp1" d="M933 470L1050 470C1053.87 470 1057 473.13 1057 477L1057 539C1057 542.87 1053.87 546 1050 546L933 546C929.13 546 926 542.87 926 539L926 477C926 473.13 929.13 470 933 470Z" />
	<path id="Shape 1 copy 27" class="shp1" d="M1074 470L1191 470C1194.87 470 1198 473.13 1198 477L1198 539C1198 542.87 1194.87 546 1191 546L1074 546C1070.13 546 1067 542.87 1067 539L1067 477C1067 473.13 1070.13 470 1074 470Z" />
</svg>