<svg xmlns="http://www.w3.org/2000/svg" xmlns:xlink="http://www.w3.org/1999/xlink" viewBox="0 0 256.53 190.03"><defs><style>.cls-1{fill:none;}.cls-2{isolation:isolate;}.cls-3{fill:#ffd100;}.cls-4{clip-path:url(#clip-path);}.cls-5{fill:#ffe778;}.cls-6{fill:#ff003d;}.cls-7{fill:#fe822f;}.cls-8{fill:#1ec723;}.cls-9{fill:#007bff;}.cls-10{fill:#8854f8;}.cls-11{fill:#fed02f;opacity:0.47;mix-blend-mode:screen;}.cls-12{fill:#fff;}</style><clipPath id="clip-path"><rect class="cls-1" width="256.53" height="190.03" rx="7.1"/></clipPath></defs><title>1Artboard 77</title><g class="cls-2"><g id="Layer_3" data-name="Layer 3"><rect class="cls-3" width="256.53" height="190.03" rx="7.1"/><g class="cls-4"><circle class="cls-5" cx="128.27" cy="183.82" r="147.11"/><path class="cls-6" d="M121.68,228.51a45,45,0,0,1-24.93-12.33l-94.86-51A127.69,127.69,0,0,0,48.94,284l91.58-56.66A45,45,0,0,1,121.68,228.51Z"/><path class="cls-7" d="M83.57,177.23a45.42,45.42,0,0,1,.92-4.56L81.2,65.05A127.69,127.69,0,0,0,1.89,165.2h0l94.86,51A45.16,45.16,0,0,1,83.57,177.23Z"/><path class="cls-8" d="M81.2,65.05l3.29,107.62A45.16,45.16,0,0,1,116,140.34l91.57-56.67A127.85,127.85,0,0,0,81.2,65.05Z"/><path class="cls-9" d="M134.85,139.12a45,45,0,0,1,24.93,12.34l94.86,51h0a127.67,127.67,0,0,0-47-118.76L116,140.34A45.08,45.08,0,0,1,134.85,139.12Z"/><path class="cls-10" d="M173,190.4a45.6,45.6,0,0,1-.91,4.57l3.28,107.62a127.69,127.69,0,0,0,79.31-100.16l-94.86-51A45.08,45.08,0,0,1,173,190.4Z"/><circle class="cls-11" cx="128.27" cy="183.82" r="110.11"/><circle class="cls-3" cx="128.27" cy="183.82" r="98.68"/><circle class="cls-12" cx="213.33" cy="76.41" r="6.12"/><circle class="cls-12" cx="77.78" cy="56.45" r="6.12"/></g></g></g></svg>